<?xml version="1.0" encoding="UTF-8" standalone="no"?>
<!-- Created with Inkscape (http://www.inkscape.org/) -->

<svg
   width="273.61847mm"
   height="121.61359mm"
   viewBox="0 0 1034.1486 459.64191"
   version="1.1"
   id="svg1"
   sodipodi:docname="wiker.svg"
   inkscape:version="1.4.3 (0d15f75, 2025-12-25)"
   xmlns:inkscape="http://www.inkscape.org/namespaces/inkscape"
   xmlns:sodipodi="http://sodipodi.sourceforge.net/DTD/sodipodi-0.dtd"
   xmlns="http://www.w3.org/2000/svg"
   xmlns:svg="http://www.w3.org/2000/svg">
  <sodipodi:namedview
     id="namedview1"
     pagecolor="#ffffff"
     bordercolor="#ffffff"
     borderopacity="1"
     inkscape:showpageshadow="0"
     inkscape:pageopacity="0"
     inkscape:pagecheckerboard="1"
     inkscape:deskcolor="#505050"
     inkscape:document-units="mm"
     inkscape:zoom="0.93893668"
     inkscape:cx="517.07427"
     inkscape:cy="229.51494"
     inkscape:window-width="1440"
     inkscape:window-height="829"
     inkscape:window-x="-8"
     inkscape:window-y="-8"
     inkscape:window-maximized="1"
     inkscape:current-layer="layer1" />
  <defs
     id="defs1">
    <filter
       style="color-interpolation-filters:sRGB"
       id="filter13"
       x="-0.25456318"
       y="-0.33915654"
       width="1.5091568"
       height="1.6783144">
      <feGaussianBlur
         stdDeviation="15.731473"
         id="feGaussianBlur13" />
    </filter>
    <filter
       style="color-interpolation-filters:sRGB"
       id="filter14"
       x="-0.40089433"
       y="-0.35168971"
       width="1.8017525"
       height="1.7033943">
      <feGaussianBlur
         stdDeviation="16.881799"
         id="feGaussianBlur14" />
    </filter>
  </defs>
  <g
     id="layer1"
     transform="translate(-22.910528,-9.4939529)">
    <rect
       style="fill:#999999;stroke:#ffffff;stroke-width:2.1247"
       id="rect1-8-1"
       width="587.42352"
       height="380.52304"
       x="23.972879"
       y="83.721947"
       ry="1.0309738" />
    <rect
       style="fill:#e8e8e8;stroke:#ffffff;stroke-width:1.4"
       id="rect1"
       width="274.06421"
       height="354.11267"
       x="28.491825"
       y="93.61599"
       ry="0.95941854" />
    <rect
       style="fill:#1a1a1a;stroke:#ffffff;stroke-width:1.4"
       id="rect2"
       width="241.50214"
       height="16.281044"
       x="39.345852"
       y="100.39976"
       ry="0.95941854" />
    <rect
       style="fill:#1a1a1a;stroke:#ffffff;stroke-width:1.4"
       id="rect3"
       width="198.08601"
       height="4.0702605"
       x="44.772865"
       y="419.23682"
       ry="0.95941854" />
    <rect
       style="fill:#1a1a1a;stroke:#ffffff;stroke-width:1.4"
       id="rect4"
       width="51.556633"
       height="12.210781"
       x="39.345852"
       y="126.17808"
       ry="0.95941854" />
    <rect
       style="fill:#1a1a1a;stroke:#ffffff;stroke-width:1.4"
       id="rect5"
       width="208.94003"
       height="8.140521"
       x="43.416111"
       y="150.59964"
       ry="0.95941854" />
    <rect
       style="fill:#1a1a1a;stroke:#ffffff;stroke-width:1.4"
       id="rect6"
       width="141.10236"
       height="16.281042"
       x="40.702606"
       y="172.30769"
       ry="0.95941854" />
    <rect
       style="fill:#1a1a1a;stroke:#ffffff;stroke-width:1.4"
       id="rect7"
       width="230.64809"
       height="6.7837672"
       x="44.772865"
       y="198.08601"
       ry="0.95941854" />
    <rect
       style="fill:#1a1a1a;stroke:#ffffff;stroke-width:1.4"
       id="rect4-2"
       width="51.556633"
       height="12.210781"
       x="41.943481"
       y="217.34325"
       ry="0.95941854" />
    <rect
       style="fill:#1a1a1a;stroke:#ffffff;stroke-width:1.4"
       id="rect5-7"
       width="208.94003"
       height="8.140521"
       x="46.013748"
       y="241.76482"
       ry="0.95941854" />
    <rect
       style="fill:#1a1a1a;stroke:#ffffff;stroke-width:1.4"
       id="rect6-6"
       width="141.10236"
       height="16.281042"
       x="43.300247"
       y="263.47287"
       ry="0.95941854" />
    <rect
       style="fill:#1a1a1a;stroke:#ffffff;stroke-width:1.4"
       id="rect7-1"
       width="230.64809"
       height="6.7837672"
       x="47.370499"
       y="289.25119"
       ry="0.95941854" />
    <rect
       style="fill:#1a1a1a;stroke:#ffffff;stroke-width:1.4"
       id="rect4-21"
       width="51.556633"
       height="12.210781"
       x="43.478317"
       y="313.89444"
       ry="0.95941854" />
    <rect
       style="fill:#1a1a1a;stroke:#ffffff;stroke-width:1.4"
       id="rect5-6"
       width="208.94003"
       height="8.140521"
       x="47.548576"
       y="338.31601"
       ry="0.95941854" />
    <rect
       style="fill:#1a1a1a;stroke:#ffffff;stroke-width:1.4"
       id="rect6-8"
       width="141.10236"
       height="16.281042"
       x="44.835072"
       y="360.02405"
       ry="0.95941854" />
    <rect
       style="fill:#1a1a1a;stroke:#ffffff;stroke-width:1.4"
       id="rect7-5"
       width="230.64809"
       height="6.7837672"
       x="48.905331"
       y="385.80237"
       ry="0.95941854" />
    <path
       d="m 309.76877,381.71346 -25.52049,78.17329 h -30.89322 l -16.38684,-135.2586 q -6.31296,-0.80591 -9.5366,-4.29818 -3.22364,-3.6266 -3.22364,-9.13365 0,-6.44728 4.16386,-10.34252 4.29819,-3.89523 14.23775,-3.89523 l 36.66892,0.13432 q 9.93955,0 14.10342,3.76091 4.29819,3.76092 4.29819,9.93956 0,6.17865 -4.29819,10.07388 -4.16387,3.76091 -14.10342,3.76091 h -14.37207 l 9.13365,76.96443 21.62526,-64.06986 h 28.60981 l 21.49094,64.06986 9.13365,-76.96443 h -14.37207 q -9.93956,0 -14.23775,-3.76091 -4.16387,-3.89523 -4.16387,-10.07388 0,-6.17864 4.16387,-9.93956 4.29819,-3.89523 14.23775,-3.89523 l 36.5346,0.13432 q 9.93956,0 14.10342,3.76091 4.29819,3.76092 4.29819,9.93956 0,5.23842 -3.35796,8.99933 -3.35796,3.76092 -9.67092,4.83546 l -15.84957,135.2586 h -30.35595 z m 174.88252,-96.03763 v 29.14708 H 451.8776 v -29.14708 z m 3.76091,52.24984 v 94.42581 h 33.04232 q 9.93956,0 14.10343,3.89524 4.29818,3.76091 4.29818,9.93956 0,6.04432 -4.29818,9.93956 -4.16387,3.76091 -14.10343,3.76091 h -93.6199 q -9.93956,0 -14.23775,-3.76091 -4.16387,-3.89524 -4.16387,-10.07388 0,-6.04433 4.16387,-9.80524 4.29819,-3.89524 14.23775,-3.89524 h 33.04231 V 365.46094 H 438.7144 q -9.80524,0 -14.10342,-3.76092 -4.29819,-3.89523 -4.29819,-10.07387 0,-6.04433 4.16387,-9.80525 4.29819,-3.89523 14.23774,-3.89523 z m 128.81131,76.15852 v 45.80256 H 584.9871 q -9.93956,0 -14.23774,-3.76091 -4.16387,-3.89524 -4.16387,-10.07388 0,-6.04433 4.29819,-9.80524 4.29818,-3.89524 14.10342,-3.89524 h 4.70115 V 313.21109 h -4.70115 q -9.93956,0 -14.23774,-3.76091 -4.16387,-3.89523 -4.16387,-10.07388 0,-6.04433 4.16387,-9.80524 4.29818,-3.89523 14.23774,-3.89523 h 32.23641 v 92.81399 l 21.49094,-17.32707 q -3.35796,-5.77569 -3.35796,-9.40229 0,-6.17864 4.16387,-9.93956 4.16387,-3.89523 14.10343,-3.89523 h 31.4305 q 9.93956,0 14.10343,3.89523 4.29818,3.76092 4.29818,9.93956 0,6.04433 -4.29818,9.93956 -4.16387,3.76092 -14.10343,3.76092 h -7.65615 l -33.44527,27.13231 44.99665,39.75823 h 8.0591 q 9.93956,0 14.10343,3.89524 4.29819,3.76091 4.29819,9.93956 0,6.04432 -4.29819,9.93956 -4.16387,3.76091 -14.10343,3.76091 h -31.69913 q -9.93956,0 -14.23775,-3.76091 -4.16387,-3.89524 -4.16387,-10.07388 0,-5.23842 4.56683,-10.34252 l -29.14709,-25.78912 z m 256.81672,-1.20887 H 761.07848 q 4.29819,10.74547 15.17798,17.32707 11.0141,6.5816 29.68435,6.5816 15.3123,0 40.69847,-6.5816 10.47683,-2.68637 14.50638,-2.68637 5.50706,0 9.26797,3.89524 3.76091,3.89523 3.76091,9.80524 0,5.37273 -4.02955,9.13365 -5.37273,4.96977 -26.19208,9.5366 -20.81934,4.43251 -40.02687,4.43251 -33.04232,0 -52.92144,-18.67026 -19.7448,-18.67025 -19.7448,-45.93688 0,-29.01277 21.35662,-47.14575 21.49094,-18.26729 49.42916,-18.26729 16.7898,0 30.75891,5.91 14.10343,5.91001 20.95366,12.76025 9.67093,9.93956 15.98389,24.58026 4.29819,10.2082 4.29819,23.64003 z m -30.49027,-27.53526 q -6.31297,-11.82002 -16.52116,-17.59571 -10.2082,-5.91001 -24.31163,-5.91001 -13.96911,0 -24.1773,5.91001 -10.2082,5.77569 -16.65548,17.59571 z m 120.75221,-47.41439 v 17.19275 q 17.32707,-12.4916 27.26663,-16.65547 10.0739,-4.16387 18.8046,-4.16387 13.4318,0 26.0577,9.93956 8.5964,6.71591 8.5964,13.70047 0,5.91001 -4.1639,10.07388 -4.0295,4.02955 -9.8052,4.02955 -5.1041,0 -10.7455,-5.1041 -5.6413,-5.1041 -10.0739,-5.1041 -5.7756,0 -17.32702,7.25319 -11.41706,7.2532 -28.60981,21.75958 v 41.50437 h 39.22093 q 9.9396,0 14.1035,3.89524 4.2981,3.76091 4.2981,9.93956 0,6.04432 -4.2981,9.93956 -4.1639,3.76091 -14.1035,3.76091 h -83.14304 q -9.93956,0 -14.23775,-3.76091 -4.16387,-3.89524 -4.16387,-10.07388 0,-6.04433 4.16387,-9.80524 4.29819,-3.89524 14.23775,-3.89524 h 16.38684 v -66.89054 h -9.93956 q -9.93956,0 -14.23774,-3.76092 -4.16387,-3.89523 -4.16387,-10.07387 0,-6.04433 4.16387,-9.80525 4.29818,-3.89523 14.23774,-3.89523 z"
       id="text1"
       style="font-weight:bold;font-size:275.084px;font-family:Monospace;-inkscape-font-specification:'Monospace Bold';fill:#1a1a1a;stroke:#ffffff;stroke-width:7.35496"
       aria-label="Wiker" />
    <g
       id="g7"
       style="fill:#1a1a1a;stroke:#ffffff;stroke-width:1.4">
      <path
         id="path12"
         style="fill:#e9e9ff;fill-rule:evenodd;stroke:none;stroke-linejoin:round"
         d="M 508.78841,181.69114 639.66307,121.1792 v 105.07119 l -130.87466,38.21587 z"
         points="639.66307,121.1792 639.66307,226.25039 508.78841,264.46626 508.78841,181.69114 " />
      <path
         id="path7"
         style="fill:#353564;fill-rule:evenodd;stroke:none;stroke-linejoin:round"
         d="m 401.44476,143.81255 v 96.73177 l 107.34365,23.92194 v -82.77512 z"
         points="401.44476,240.54432 508.78841,264.46626 508.78841,181.69114 401.44476,143.81255 " />
      <path
         id="path8"
         style="fill:#4d4d9f;fill-rule:evenodd;stroke:none;stroke-linejoin:round"
         d="M 401.44476,143.81255 526.26608,57.242927 639.66307,121.1792 508.78841,181.69114 Z"
         points="526.26608,57.242927 639.66307,121.1792 508.78841,181.69114 401.44476,143.81255 " />
      <path
         id="path11"
         style="fill:#afafde;fill-rule:evenodd;stroke:none;stroke-linejoin:round"
         d="m 401.44476,240.54432 124.82132,-54.67241 113.39699,40.37848 -130.87466,38.21587 z"
         points="526.26608,185.87191 639.66307,226.25039 508.78841,264.46626 401.44476,240.54432 " />
      <path
         id="path10"
         style="fill:#d7d7ff;fill-rule:evenodd;stroke:none;stroke-linejoin:round"
         d="M 526.26608,57.242927 V 185.87191 l 113.39699,40.37848 V 121.1792 Z"
         points="526.26608,185.87191 639.66307,226.25039 639.66307,121.1792 526.26608,57.242927 " />
      <path
         id="path9"
         style="fill:#8686bf;fill-rule:evenodd;stroke:none;stroke-linejoin:round"
         d="M 401.44476,143.81255 526.26608,57.242927 V 185.87191 l -124.82132,54.67241 z"
         points="526.26608,57.242927 526.26608,185.87191 401.44476,240.54432 401.44476,143.81255 " />
    </g>
    <path
       style="fill:#000000;fill-opacity:1;stroke:#ffffff;stroke-width:1.4;filter:url(#filter13)"
       d="m 516.92309,70.551183 c 1.74932,4.596123 -0.0248,20.27698 1.35675,24.421563 0.31979,0.959369 1.1905,1.716002 1.35675,2.713507 0.70952,4.257077 -1.04802,9.375457 0,13.567537 3.49225,13.96896 7.05863,29.7628 16.28105,42.05935 0.27135,0.3618 1.03696,-0.31979 1.35675,0 0.31979,0.31979 0,0.90451 0,1.35676 0.9045,0.45225 1.99843,0.64168 2.71351,1.35675 0.54972,0.54973 3.88219,7.95246 5.42701,9.49727 5.29505,5.29505 0.72864,-0.31405 4.07026,1.35676 1.58045,0.79022 2.48982,1.92328 4.07026,2.71351 3.07072,1.53535 7.57937,1.62195 10.85403,2.7135 1.91874,0.63958 3.50827,2.07393 5.42701,2.71351 1.28713,0.42904 2.75402,-0.32906 4.07026,0 6.55169,1.63792 -0.0672,0.64475 4.07026,2.71351 3.1478,1.5739 12.18285,-0.009 16.28105,1.35675 3.11022,1.03674 28.05068,4.5114 29.84857,2.71351 0.63958,-0.63958 -0.4045,-1.9045 0,-2.71351 0.57206,-1.14412 2.23844,-1.52584 2.71351,-2.71351 0.95486,-2.38715 -0.81253,-5.70294 0,-8.14052 4.3528,-13.0584 -0.20924,-28.11651 -10.85403,-36.63234 -7.75211,-6.20169 -17.96994,-8.21651 -24.42156,-16.28104 -0.9045,-1.35676 -1.80901,-2.71351 -2.71351,-4.07026 -0.45225,0 -1.03696,0.31979 -1.35675,0 -0.71507,-0.71508 -0.9045,-1.80901 -1.35676,-2.71351 -0.45225,-1.35675 -0.34548,-3.059 -1.35675,-4.07026 -0.63958,-0.63958 -1.96091,0.50173 -2.71351,0 -0.63999,-0.42667 -6.45164,-10.803385 -8.14052,-12.210781 -1.55375,-1.294791 -3.74417,-1.59161 -5.42701,-2.713507 -1.02048,-0.680318 -13.2958,-10.310552 -13.56754,-10.854028 -0.20225,-0.404506 0.31979,-1.036964 0,-1.356753 -0.80916,-0.809161 -8.87077,-3.078634 -10.85402,-4.070261 -2.85072,-1.425358 0.0264,-2.687144 -1.35676,-4.07026 -0.60285,-0.602857 -7.81759,0 -8.14052,0 -5.89663,0 -11.74116,1.356753 -17.63779,1.356753 -10.5532,0 -18.57038,-3.052753 -28.49183,0 -2.89963,0.892196 -5.29989,3.005025 -8.14052,4.070261 -0.84691,0.317592 -3.61801,0 -2.7135,0 2.26125,0 4.63855,-0.715072 6.78376,0 0.60676,0.202252 0.73627,1.201632 1.35676,1.356753 2.19374,0.548435 4.63855,-0.715072 6.78376,0 0.60676,0.202253 0.90451,0.904502 1.35676,1.356754 1.35675,0.452251 2.65957,1.121639 4.07026,1.356753 0.78495,0.130826 8.38845,0.831619 9.49727,0 3.33564,-2.50173 6.33152,-5.427014 9.49728,-8.140521 z"
       id="path13" />
    <path
       style="fill:#000000;fill-opacity:1;stroke:#ffffff;stroke-width:1.4;filter:url(#filter14)"
       d="m 560.3392,71.907937 c -1.80901,-0.904503 -4.52251,-4.522512 -5.42702,-2.713507 -0.9045,1.809004 7.44955,2.713507 5.42702,2.713507 -3.72936,0 -7.19709,-1.98212 -10.85403,-2.713507 -1.85337,-0.370675 -16.16899,-0.734402 -17.63779,0 -0.40451,0.202252 0.31979,1.036963 0,1.356753 -0.63221,0.632208 -3.79995,0.821285 -4.07027,2.713507 -1.71782,12.024763 0,26.9229 0,39.34585 0,5.04388 -1.36163,23.05018 0,27.13507 0.31979,0.95937 1.15843,1.72188 1.35676,2.71351 0.77062,3.85308 -0.95309,8.39841 0,12.21078 0.23849,0.95398 3.21273,6.355 4.07026,6.78376 0.4045,0.20226 1.03696,-0.31979 1.35675,0 0.50938,0.50938 3.49545,6.20896 4.07026,6.78377 0.70225,0.70225 4.72477,0.65451 5.42702,1.35676 0.66412,0.66412 0.85908,2.2499 2.7135,2.7135 2.19374,0.54844 4.68425,-0.83981 6.78377,0 1.51399,0.6056 2.6118,1.98428 4.07026,2.71351 1.76204,2.99693 4.64267,0.50031 6.78377,1.35675 1.51399,0.6056 2.61179,1.98428 4.07026,2.71351 2.44544,1.22272 15.01803,0.0312 18.99455,1.35675 4.74591,1.58197 4.06794,1.35521 8.14052,4.07026 1.86098,1.24066 20.29985,1.35676 24.42156,1.35676 2.43533,0 6.5528,0.23097 8.14052,-1.35676 1.66446,-1.66445 1.35676,-7.775 1.35676,-10.85402 0,-1.06235 0.67698,-6.10678 0,-6.78377 -0.95937,-0.95937 -2.78314,0.42904 -4.07026,0 -1.79346,-0.59782 -3.69761,-3.20556 -5.42702,-4.07026 -1.07143,-0.53572 -2.92604,0.3814 -4.07026,0 -2.38078,-0.7936 -14.30371,-7.15186 -16.28104,-8.14052 -1.81717,-0.90859 -1.87996,-3.23671 -2.71351,-4.07026 -0.31979,-0.31979 -0.9045,0 -1.35675,0 -0.9045,-0.90451 -2.00396,-1.64919 -2.71351,-2.71351 -0.25086,-0.3763 0.40451,-1.1545 0,-1.35675 -0.80901,-0.40451 -1.90449,0.4045 -2.71351,0 -3.76592,-1.88297 -5.46016,-6.81692 -8.14052,-9.49728 -1.82439,-1.82439 -5.49584,-2.85117 -6.78376,-5.42701 -2.08063,-4.16125 -2.86787,-9.3023 -5.42702,-13.56754 -2.25582,-3.75969 -6.11985,-6.81268 -8.14052,-10.85402 -1.174,-2.348 0,-9.631283 0,-12.210784 0,-7.894424 -0.22968,-15.175278 -1.35675,-23.064809 z"
       id="path14" />
    <g
       id="g7-2"
       style="fill:#1a1a1a;stroke:#ffffff;stroke-width:1.4">
      <path
         id="path12-7"
         style="fill:#e9e9ff;fill-rule:evenodd;stroke:none;stroke-linejoin:round"
         d="m 687.08143,98.173662 32.98141,-15.249469 v 91.781527 l -32.98141,10.34136 z"
         points="720.06284,82.924193 720.06284,174.70572 687.08143,185.04708 687.08143,98.173662 " />
      <path
         id="path7-9"
         style="fill:#353564;fill-rule:evenodd;stroke:none;stroke-linejoin:round"
         d="M 574.10376,41.571299 V 146.66241 l 112.97767,38.38467 V 98.173662 Z"
         points="574.10376,146.66241 687.08143,185.04708 687.08143,98.173662 574.10376,41.571299 " />
      <path
         id="path8-5"
         style="fill:#4d4d9f;fill-rule:evenodd;stroke:none;stroke-linejoin:round"
         d="M 574.10376,41.571299 606.66585,18.987917 720.06284,82.924193 687.08143,98.173662 Z"
         points="606.66585,18.987917 720.06284,82.924193 687.08143,98.173662 574.10376,41.571299 " />
      <path
         id="path11-4"
         style="fill:#afafde;fill-rule:evenodd;stroke:none;stroke-linejoin:round"
         d="m 574.10376,146.66241 32.56209,-15.31483 113.39699,43.35814 -32.98141,10.34136 z"
         points="606.66585,131.34758 720.06284,174.70572 687.08143,185.04708 574.10376,146.66241 " />
      <path
         id="path10-3"
         style="fill:#d7d7ff;fill-rule:evenodd;stroke:none;stroke-linejoin:round"
         d="M 606.66585,18.987917 V 131.34758 l 113.39699,43.35814 V 82.924193 Z"
         points="606.66585,131.34758 720.06284,174.70572 720.06284,82.924193 606.66585,18.987917 " />
      <path
         id="path9-1"
         style="fill:#8686bf;fill-rule:evenodd;stroke:none;stroke-linejoin:round"
         d="M 574.10376,41.571299 606.66585,18.987917 V 131.34758 l -32.56209,15.31483 z"
         points="606.66585,18.987917 606.66585,131.34758 574.10376,146.66241 574.10376,41.571299 " />
    </g>
  </g>
</svg>
