<?xml version="1.0" encoding="UTF-8" standalone="no"?>
<!-- Created with Inkscape (http://www.inkscape.org/) -->

<svg
   width="2684.8042"
   height="2697.5471"
   viewBox="0 0 2684.8042 2697.5471"
   version="1.1"
   id="svg1"
   inkscape:version="1.4.2 (f4327f4, 2025-05-13)"
   sodipodi:docname="g12.svg"
   inkscape:export-filename="bg.svg"
   inkscape:export-xdpi="96"
   inkscape:export-ydpi="96"
   xml:space="preserve"
   xmlns:inkscape="http://www.inkscape.org/namespaces/inkscape"
   xmlns:sodipodi="http://sodipodi.sourceforge.net/DTD/sodipodi-0.dtd"
   xmlns:xlink="http://www.w3.org/1999/xlink"
   xmlns="http://www.w3.org/2000/svg"
   xmlns:svg="http://www.w3.org/2000/svg"><sodipodi:namedview
     id="namedview1"
     pagecolor="#505050"
     bordercolor="#eeeeee"
     borderopacity="1"
     inkscape:showpageshadow="0"
     inkscape:pageopacity="0"
     inkscape:pagecheckerboard="0"
     inkscape:deskcolor="#505050"
     inkscape:document-units="px"
     inkscape:zoom="0.23662548"
     inkscape:cx="1352.348"
     inkscape:cy="1358.6872"
     inkscape:window-width="1440"
     inkscape:window-height="829"
     inkscape:window-x="-8"
     inkscape:window-y="-8"
     inkscape:window-maximized="1"
     inkscape:current-layer="layer1"><inkscape:page
       x="0"
       y="0"
       width="2684.8042"
       height="2697.5471"
       id="page2"
       margin="0"
       bleed="0" /></sodipodi:namedview><defs
     id="defs1"><linearGradient
       id="linearGradient7"
       inkscape:collect="always"><stop
         style="stop-color:#ff0000;stop-opacity:1;"
         offset="0.49885058"
         id="stop7" /><stop
         style="stop-color:#008f06;stop-opacity:1;"
         offset="0.55084836"
         id="stop8" /></linearGradient><filter
       inkscape:collect="always"
       style="color-interpolation-filters:sRGB"
       id="filter2"
       x="-0.047373705"
       y="-0.046931661"
       width="1.0947471"
       height="1.0937079"><feGaussianBlur
         inkscape:collect="always"
         stdDeviation="21.087702"
         id="feGaussianBlur2" /></filter><filter
       inkscape:collect="always"
       style="color-interpolation-filters:sRGB"
       id="filter3-5"
       x="-0.12087532"
       y="-0.11985563"
       width="1.2417504"
       height="1.239711"><feGaussianBlur
         inkscape:collect="always"
         stdDeviation="82.891317"
         id="feGaussianBlur3-5" /></filter><filter
       inkscape:collect="always"
       style="color-interpolation-filters:sRGB"
       id="filter12"
       x="-0.33205376"
       y="-0.28619626"
       width="1.6309316"
       height="1.6103671"><feGaussianBlur
         inkscape:collect="always"
         stdDeviation="203.65689"
         id="feGaussianBlur12" /></filter><filter
       inkscape:collect="always"
       style="color-interpolation-filters:sRGB"
       id="filter82"
       x="-0.1660548"
       y="-0.16760943"
       width="1.3323943"
       height="1.3350391"><feGaussianBlur
         inkscape:collect="always"
         stdDeviation="133.40124"
         id="feGaussianBlur82" /></filter><filter
       inkscape:collect="always"
       style="color-interpolation-filters:sRGB"
       id="filter19"
       x="-0.81486994"
       y="-0.8158307"
       width="2.6526126"
       height="2.5879323"><feGaussianBlur
         inkscape:collect="always"
         stdDeviation="638.93185"
         id="feGaussianBlur19" /></filter><linearGradient
       id="linearGradient988"><stop
         id="stop1"
         offset="0" /><stop
         id="stop2"
         stop-opacity="0"
         offset="1" /></linearGradient><linearGradient
       id="linearGradient1054"
       x1="155"
       x2="155"
       y1="951.36"
       y2="971.36"
       gradientUnits="userSpaceOnUse"
       xlink:href="#linearGradient988" /><radialGradient
       id="radialGradient1062"
       cx="100"
       cy="948.86"
       r="12.5"
       gradientTransform="matrix(2 1.8506e-6 1.4805e-6 -1.6 -3.0014 1717.2)"
       gradientUnits="userSpaceOnUse"
       xlink:href="#linearGradient988" /><radialGradient
       id="radialGradient1070"
       cx="100"
       cy="948.86"
       r="12.5"
       gradientTransform="matrix(-2 5.2353e-5 -4.1884e-5 -1.6001 303.04 1717.2)"
       gradientUnits="userSpaceOnUse"
       xlink:href="#linearGradient988" /><linearGradient
       id="linearGradient1078"
       x1="103"
       x2="78"
       y1="892.36"
       y2="892.36"
       gradientUnits="userSpaceOnUse"
       xlink:href="#linearGradient988" /><radialGradient
       id="radialGradient1094"
       cx="101"
       cy="856.86"
       r="12.5"
       gradientTransform="matrix(-2.8296e-6 -1.44 2 -3.93e-6 -1610.7 246.44)"
       gradientUnits="userSpaceOnUse"
       xlink:href="#linearGradient988" /><radialGradient
       id="radialGradient1102"
       cx="101"
       cy="856.86"
       r="12.5"
       gradientTransform="matrix(2.8296e-6 -1.44 -2 -3.93e-6 1910.7 246.44)"
       gradientUnits="userSpaceOnUse"
       xlink:href="#linearGradient988" /><linearGradient
       id="linearGradient1187"
       x1="103"
       x2="81"
       y1="892.36"
       y2="892.36"
       gradientUnits="userSpaceOnUse"
       xlink:href="#linearGradient988" /><linearGradient
       id="linearGradient1189"
       x1="155"
       x2="155"
       y1="951.36"
       y2="962.36"
       gradientUnits="userSpaceOnUse"
       xlink:href="#linearGradient988" /><radialGradient
       id="radialGradient1191"
       cx="100"
       cy="948.86"
       r="12.5"
       gradientTransform="matrix(-1.76,0,0,-0.88,547,1034)"
       gradientUnits="userSpaceOnUse"
       xlink:href="#linearGradient988" /><radialGradient
       id="radialGradient1193"
       cx="101"
       cy="856.86"
       r="12.5"
       gradientTransform="matrix(0,-1.44,1.76,0,-1137.1,246.44)"
       gradientUnits="userSpaceOnUse"
       xlink:href="#linearGradient988" /><radialGradient
       id="radialGradient1197"
       cx="101"
       cy="856.86"
       r="12.5"
       gradientTransform="matrix(0,-1.44,-1.76,0,1973.1,246.44)"
       gradientUnits="userSpaceOnUse"
       xlink:href="#linearGradient988" /><radialGradient
       id="radialGradient1199"
       cx="100"
       cy="948.86"
       r="12.5"
       gradientTransform="matrix(1.76,0,0,-0.88,289,1034)"
       gradientUnits="userSpaceOnUse"
       xlink:href="#linearGradient988" /><linearGradient
       id="linearGradient1"><stop
         style="stop-color:#e5e5e5;stop-opacity:1;"
         offset="0"
         id="stop1-1" /><stop
         style="stop-color:#ffffff;stop-opacity:1;"
         offset="1"
         id="stop2-4" /></linearGradient><linearGradient
       id="linearGradient5"><stop
         style="stop-color:#ffffff;stop-opacity:1;"
         offset="0"
         id="stop5" /><stop
         style="stop-color:#d2d2d2;stop-opacity:1;"
         offset="1"
         id="stop6" /></linearGradient><rect
       id="SVGID_00000105414853600283290720000017360153226701225652_"
       y="0"
       width="640"
       height="483.70001"
       x="0" /><linearGradient
       xlink:href="#linearGradient5"
       id="linearGradient6"
       x1="8.3539963"
       y1="2.9962766"
       x2="8.1593733"
       y2="4.2616396"
       gradientUnits="userSpaceOnUse" /><clipPath
       clipPathUnits="userSpaceOnUse"
       id="clipPath1-0"><use
         xlink:href="#SVGID_00000105414853600283290720000017360153226701225652_"
         style="overflow:visible"
         id="use1-9"
         transform="matrix(0.26458439,0,0,0.26458333,-3.1190052,-118.71854)" /></clipPath><linearGradient
       xlink:href="#linearGradient1"
       id="linearGradient2"
       x1="690.2926"
       y1="274.15527"
       x2="833.06842"
       y2="274.15527"
       gradientUnits="userSpaceOnUse" /><filter
       inkscape:collect="always"
       style="color-interpolation-filters:sRGB"
       id="filter4"
       x="-0.13542683"
       y="-1.359134"
       width="1.2708537"
       height="3.7584753"><feGaussianBlur
         inkscape:collect="always"
         stdDeviation="80.810133"
         id="feGaussianBlur4" /></filter><linearGradient
       inkscape:collect="always"
       xlink:href="#linearGradient1"
       id="linearGradient3"
       gradientUnits="userSpaceOnUse"
       x1="690.2926"
       y1="274.15527"
       x2="833.06842"
       y2="274.15527" /><linearGradient
       inkscape:collect="always"
       xlink:href="#linearGradient5"
       id="linearGradient4"
       gradientUnits="userSpaceOnUse"
       x1="8.3539963"
       y1="2.9962766"
       x2="8.1593733"
       y2="4.2616396" /><radialGradient
       inkscape:collect="always"
       xlink:href="#linearGradient7"
       id="radialGradient8"
       cx="-2807.3965"
       cy="2740.7937"
       fx="-2807.3965"
       fy="2740.7937"
       r="302.16522"
       gradientTransform="matrix(1,0,0,0.75524504,-50.713053,437.33149)"
       gradientUnits="userSpaceOnUse" /></defs><g
     inkscape:label="Layer 1"
     inkscape:groupmode="layer"
     id="layer1"
     transform="translate(-603.49194,138.83223)"><g
       id="g12"
       transform="matrix(0.66520442,0,0,0.65171938,1369.8835,163.94104)"
       style="mix-blend-mode:normal;filter:url(#filter12)"
       sodipodi:insensitive="true"><ellipse
         style="mix-blend-mode:normal;fill:#000000;fill-opacity:1;fill-rule:evenodd;stroke:#000000;stroke-width:89.9813;stroke-linecap:round;stroke-linejoin:round;stroke-miterlimit:3.6;stroke-dasharray:179.963, 89.9813, 44.9906, 89.9813;stroke-opacity:0.0829596;filter:url(#filter3-5)"
         id="ellipse9"
         cx="3148.9907"
         cy="252.40053"
         rx="1009.0161"
         ry="1017.6003"
         transform="matrix(1.0486758,0,0,1.0448804,-2556.6424,1370.4234)" /><ellipse
         style="fill:#000000;fill-opacity:1;fill-rule:evenodd;stroke:#ffffff;stroke-width:98.187;stroke-linecap:round;stroke-linejoin:round;stroke-miterlimit:3.6;stroke-dasharray:196.374, 98.187, 49.0934, 98.187;stroke-opacity:1"
         id="ellipse10"
         cx="759.57458"
         cy="1596.1692"
         rx="1109.9484"
         ry="1101.4783" /><ellipse
         style="fill:none;fill-opacity:1;fill-rule:evenodd;stroke:#ffffff;stroke-width:89.9813;stroke-linecap:round;stroke-linejoin:round;stroke-miterlimit:3.6;stroke-dasharray:179.963, 89.9813, 44.9906, 89.9813;stroke-opacity:1;filter:url(#filter2)"
         id="ellipse11"
         cx="629.87524"
         cy="1719.5259"
         rx="1009.0161"
         ry="1017.6003"
         transform="matrix(1.1000304,0,0,1.0824272,66.692725,-250.22419)" /><ellipse
         style="mix-blend-mode:normal;fill:#000000;fill-opacity:1;fill-rule:evenodd;stroke:#ffffff;stroke-width:89.9813;stroke-linecap:round;stroke-linejoin:round;stroke-miterlimit:3.6;stroke-dasharray:179.963, 89.9813, 44.9906, 89.9813;stroke-opacity:0.565022;filter:url(#filter3-5)"
         id="ellipse12"
         cx="3148.9907"
         cy="252.40053"
         rx="1009.0161"
         ry="1017.6003"
         transform="matrix(1.0879688,0,0,1.0956088,-2729.9164,1435.4574)" /></g><g
       id="g49"
       transform="matrix(0.54191273,0,0,0.5363831,1507.3854,313.90536)"
       sodipodi:insensitive="true"><ellipse
         style="fill:none;fill-opacity:1;fill-rule:evenodd;stroke:#ffffff;stroke-width:98.187;stroke-linecap:round;stroke-linejoin:round;stroke-miterlimit:3.6;stroke-dasharray:196.374, 98.187, 49.0934, 98.187;stroke-opacity:1;filter:url(#filter82)"
         id="ellipse4"
         cx="759.57458"
         cy="1596.1692"
         rx="1109.9484"
         ry="1101.4783" /><ellipse
         style="mix-blend-mode:normal;fill:#000000;fill-opacity:1;fill-rule:evenodd;stroke:#000000;stroke-width:89.9813;stroke-linecap:round;stroke-linejoin:round;stroke-miterlimit:3.6;stroke-dasharray:179.963, 89.9813, 44.9906, 89.9813;stroke-opacity:0.0829596;filter:url(#filter3-5)"
         id="ellipse5"
         cx="3148.9907"
         cy="252.40053"
         rx="1009.0161"
         ry="1017.6003"
         transform="matrix(1.0486758,0,0,1.0448804,-2556.6424,1370.4234)" /><ellipse
         style="fill:none;fill-opacity:1;fill-rule:evenodd;stroke:#ffffff;stroke-width:89.9813;stroke-linecap:round;stroke-linejoin:round;stroke-miterlimit:3.6;stroke-dasharray:179.963, 89.9813, 44.9906, 89.9813;stroke-opacity:1"
         id="ellipse6"
         cx="629.87524"
         cy="1719.5259"
         rx="1009.0161"
         ry="1017.6003"
         transform="matrix(1.1000304,0,0,1.0824272,66.692725,-250.22419)" /><ellipse
         style="mix-blend-mode:normal;fill:#000000;fill-opacity:1;fill-rule:evenodd;stroke:#ffffff;stroke-width:89.9813;stroke-linecap:round;stroke-linejoin:round;stroke-miterlimit:3.6;stroke-dasharray:179.963, 89.9813, 44.9906, 89.9813;stroke-opacity:0.565022;filter:url(#filter3-5)"
         id="ellipse8"
         cx="3148.9907"
         cy="252.40053"
         rx="1009.0161"
         ry="1017.6003"
         transform="matrix(1.0879688,0,0,1.0956088,-2729.9164,1435.4574)" /></g><g
       id="g19"
       transform="matrix(0.31816013,0,0,0.30858609,2091.3266,1110.8754)"
       style="opacity:0.998217;mix-blend-mode:normal;filter:url(#filter19)"
       sodipodi:insensitive="true"><ellipse
         style="fill:none;fill-opacity:1;fill-rule:evenodd;stroke:#ffffff;stroke-width:98.187;stroke-linecap:round;stroke-linejoin:round;stroke-miterlimit:3.6;stroke-dasharray:196.374, 98.187, 49.0934, 98.187;stroke-opacity:1;filter:url(#filter82)"
         id="ellipse16"
         cx="759.57458"
         cy="1596.1692"
         rx="1109.9484"
         ry="1101.4783" /><ellipse
         style="mix-blend-mode:normal;fill:#000000;fill-opacity:1;fill-rule:evenodd;stroke:#000000;stroke-width:89.9813;stroke-linecap:round;stroke-linejoin:round;stroke-miterlimit:3.6;stroke-dasharray:179.963, 89.9813, 44.9906, 89.9813;stroke-opacity:0.0829596;filter:url(#filter3-5)"
         id="ellipse17"
         cx="3148.9907"
         cy="252.40053"
         rx="1009.0161"
         ry="1017.6003"
         transform="matrix(1.0486758,0,0,1.0448804,-2556.6424,1370.4234)" /><ellipse
         style="fill:none;fill-opacity:1;fill-rule:evenodd;stroke:#ffffff;stroke-width:89.9813;stroke-linecap:round;stroke-linejoin:round;stroke-miterlimit:3.6;stroke-dasharray:179.963, 89.9813, 44.9906, 89.9813;stroke-opacity:1"
         id="ellipse18"
         cx="629.87524"
         cy="1719.5259"
         rx="1009.0161"
         ry="1017.6003"
         transform="matrix(1.1000304,0,0,1.0824272,66.692725,-250.22419)" /><ellipse
         style="mix-blend-mode:normal;fill:#000000;fill-opacity:1;fill-rule:evenodd;stroke:#ffffff;stroke-width:89.9813;stroke-linecap:round;stroke-linejoin:round;stroke-miterlimit:3.6;stroke-dasharray:179.963, 89.9813, 44.9906, 89.9813;stroke-opacity:0.565022;filter:url(#filter3-5)"
         id="ellipse19"
         cx="3148.9907"
         cy="252.40053"
         rx="1009.0161"
         ry="1017.6003"
         transform="matrix(1.0879688,0,0,1.0956088,-2729.9164,1435.4574)" /></g><g
       id="g1"
       transform="matrix(1.5296904,0,0,1.6381096,849.70724,1278.2004)"><g
         id="layer1-2"
         transform="translate(604.21458,-147.02107)"><path
           d="M 826.56279,279.0345 H 696.79826 q -3.48518,0 -4.99542,-1.39407 -1.51024,-1.2779 -1.51024,-3.48517 0,-2.20728 1.51024,-3.60134 1.51024,-1.2779 4.99542,-1.2779 h 129.76453 q 3.60134,0 4.99541,1.2779 1.51024,1.39406 1.51024,3.60134 0,2.20727 -1.51024,3.48517 -1.39407,1.39407 -4.99541,1.39407 z"
           id="text5"
           style="font-size:237.921px;font-family:Monospace;-inkscape-font-specification:Monospace;fill:url(#linearGradient3);fill-rule:evenodd;stroke-width:2.61592;stroke-linecap:round;stroke-linejoin:round;stroke-miterlimit:3.6;stroke-dasharray:10.4637, 5.23185, 2.61592, 5.23185"
           transform="scale(0.99377461,1.0062644)"
           aria-label="_" /><g
           id="layer1-0"
           transform="matrix(84.059652,0,0,79.854095,-616.03785,-108.12447)"><text
             xml:space="preserve"
             style="font-size:1px;font-family:Consolas;-inkscape-font-specification:Consolas;text-align:start;writing-mode:lr-tb;direction:ltr;text-anchor:start;opacity:1;fill:#000000;fill-opacity:0.533333;fill-rule:evenodd;stroke:#f3f3f3;stroke-width:0.211667;stroke-linecap:round;stroke-linejoin:round;stroke-miterlimit:3.6;stroke-dasharray:1.69333, 0.423333, 0.211667, 0.423333;paint-order:markers fill stroke"
             x="1.057554"
             y="2.3335159"
             id="text2"><tspan
               id="tspan2"
               style="font-size:1px;stroke-width:0.211667"
               x="1.057554"
               y="2.3335159" /></text><path
             d="M 1.7558803,3.8358659 H 0.29437318 q 0.0375621,0.278301 0.23220207,0.4490378 0.19634735,0.1690295 0.48489255,0.1690295 0.1604926,0 0.3363515,-0.052928 0.175859,-0.052929 0.2868379,-0.1400042 0.03244,-0.025611 0.056343,-0.025611 0.027318,0 0.047806,0.022196 0.020488,0.020488 0.020488,0.049514 0,0.029025 -0.027318,0.056343 -0.081954,0.085368 -0.29196,0.1604926 -0.2082989,0.073417 -0.4285494,0.073417 -0.36879151,0 -0.6163599,-0.2407389 -0.24586101,-0.2424463 -0.24586101,-0.5856273 0,-0.3124484 0.2304947,-0.5361136 0.23220207,-0.2236652 0.57367571,-0.2236652 0.3517178,0 0.5787978,0.2304947 0.22708,0.2287873 0.2236652,0.5941641 z M 1.610754,3.6907396 Q 1.5680698,3.4534154 1.3853814,3.3048744 1.2044004,3.1563334 0.9534173,3.1563334 q -0.25098312,0 -0.43196415,0.1468336 -0.18098103,0.1468337 -0.2253726,0.3875726 z M 2.9066465,3.0624281 v 0.3619621 q 0.2800084,-0.2526905 0.4183052,-0.3244 0.1400042,-0.073417 0.2578126,-0.073417 0.1280526,0 0.2373242,0.087076 0.1109789,0.085368 0.1109789,0.12976 0,0.03244 -0.022196,0.054636 -0.020489,0.020488 -0.052929,0.020488 -0.017074,0 -0.029025,-0.00512 -0.011952,-0.00683 -0.044392,-0.039269 Q 3.7227674,3.2143862 3.678376,3.1921902 3.633984,3.1699942 3.5913,3.1699942 q -0.093905,0 -0.22708,0.075124 -0.1314673,0.075124 -0.4575747,0.3670842 V 4.39759 h 0.635141 q 0.052928,0 0.075124,0.020488 0.022196,0.018781 0.022196,0.051221 0,0.030733 -0.022196,0.051221 -0.022196,0.020488 -0.075124,0.020488 H 2.4166319 q -0.051221,0 -0.073417,-0.018781 -0.022196,-0.020488 -0.022196,-0.051221 0,-0.029025 0.020489,-0.047806 0.022196,-0.020488 0.075124,-0.020488 H 2.7632276 V 3.2075544 H 2.4985855 q -0.051221,0 -0.073417,-0.020488 -0.022196,-0.020488 -0.022196,-0.052928 0,-0.030733 0.020488,-0.051221 0.022196,-0.020488 0.075124,-0.020488 z m 2.0983556,0 v 0.3619621 q 0.2800083,-0.2526905 0.4183052,-0.3244 0.1400042,-0.073417 0.2578126,-0.073417 0.1280526,0 0.2373241,0.087076 0.110979,0.085368 0.110979,0.12976 0,0.03244 -0.022196,0.054636 -0.020488,0.020488 -0.052928,0.020488 -0.017074,0 -0.029025,-0.00512 -0.011952,-0.00683 -0.044392,-0.039269 -0.059758,-0.059758 -0.1041494,-0.081954 -0.044392,-0.022196 -0.087076,-0.022196 -0.093905,0 -0.22708,0.075124 Q 5.3311093,3.3202422 5.005002,3.6122024 V 4.39759 h 0.635141 q 0.052928,0 0.075124,0.020488 0.022196,0.018781 0.022196,0.051221 0,0.030733 -0.022196,0.051221 Q 5.693071,4.541008 5.640143,4.541008 H 4.5149874 q -0.051221,0 -0.073417,-0.018781 -0.022196,-0.020488 -0.022196,-0.051221 0,-0.029025 0.020488,-0.047806 0.022196,-0.020488 0.075124,-0.020488 H 4.8615831 V 3.2075544 h -0.264642 q -0.051221,0 -0.073417,-0.020488 -0.022196,-0.020488 -0.022196,-0.052928 0,-0.030733 0.020488,-0.051221 0.022196,-0.020488 0.075124,-0.020488 z m 3.0715556,0.7427052 q 0,0.3278147 -0.2356168,0.5600167 Q 7.6070315,4.5973521 7.275802,4.5973521 6.9411579,4.5973521 6.7072484,4.36515 6.473339,4.1312406 6.473339,3.8051333 q 0,-0.3278147 0.2339094,-0.5600168 0.2339095,-0.2339094 0.5685536,-0.2339094 0.3312295,0 0.5651389,0.232202 0.2356168,0.2322021 0.2356168,0.5617242 z m -0.1451263,0 q 0,-0.2697642 -0.1929326,-0.4592821 -0.1912252,-0.1895178 -0.4644041,-0.1895178 -0.273179,0 -0.4661116,0.1912252 -0.1912252,0.1895179 -0.1912252,0.4575747 0,0.2663494 0.1912252,0.4575746 0.1929326,0.1912253 0.4661116,0.1912253 0.2731789,0 0.4644041,-0.1895179 0.1929326,-0.1912252 0.1929326,-0.459282 z M 9.2017131,3.0624281 v 0.3619621 q 0.2800084,-0.2526905 0.4183052,-0.3244 0.1400042,-0.073417 0.2578126,-0.073417 0.1280531,0 0.2373241,0.087076 0.110979,0.085368 0.110979,0.12976 0,0.03244 -0.0222,0.054636 -0.02049,0.020488 -0.05293,0.020488 -0.01707,0 -0.02902,-0.00512 -0.01195,-0.00683 -0.04439,-0.039269 -0.05976,-0.059758 -0.1041495,-0.081954 -0.044391,-0.022196 -0.087076,-0.022196 -0.093905,0 -0.22708,0.075124 -0.1314673,0.075124 -0.4575747,0.3670842 V 4.39759 h 0.635141 q 0.052928,0 0.075124,0.020488 0.022196,0.018781 0.022196,0.051221 0,0.030733 -0.022196,0.051221 -0.022196,0.020488 -0.075124,0.020488 H 8.7116985 q -0.051221,0 -0.073417,-0.018781 -0.022196,-0.020488 -0.022196,-0.051221 0,-0.029025 0.020488,-0.047806 0.022196,-0.020488 0.075124,-0.020488 H 9.0582942 V 3.2075544 H 8.7936521 q -0.051221,0 -0.073417,-0.020488 -0.022196,-0.020488 -0.022196,-0.052928 0,-0.030733 0.020488,-0.051221 0.022196,-0.020488 0.075124,-0.020488 z m 5.1699119,0.7427052 q 0,0.3278147 -0.235617,0.5600167 -0.23391,0.2322021 -0.565139,0.2322021 -0.334644,0 -0.568554,-0.2322021 -0.233909,-0.2339094 -0.233909,-0.5600167 0,-0.3278147 0.233909,-0.5600168 0.23391,-0.2339094 0.568554,-0.2339094 0.331229,0 0.565139,0.232202 0.235617,0.2322021 0.235617,0.5617242 z m -0.145127,0 q 0,-0.2697642 -0.192932,-0.4592821 -0.191226,-0.1895178 -0.464405,-0.1895178 -0.273178,0 -0.466111,0.1912252 -0.191225,0.1895179 -0.191225,0.4575747 0,0.2663494 0.191225,0.4575746 0.192933,0.1912253 0.466111,0.1912253 0.273179,0 0.464405,-0.1895179 0.192932,-0.1912252 0.192932,-0.459282 z m 1.915667,-0.6487999 q 0,-0.049514 0.02049,-0.071709 0.02049,-0.022196 0.05122,-0.022196 0.03244,0 0.05293,0.022196 0.02049,0.022196 0.02049,0.075124 v 0.245861 q 0,0.051221 -0.02049,0.073417 -0.02049,0.022196 -0.05293,0.022196 -0.02903,0 -0.04951,-0.018781 -0.01878,-0.018781 -0.0222,-0.061465 -0.01024,-0.1024421 -0.105857,-0.1690294 -0.140004,-0.095613 -0.370499,-0.095613 -0.240738,0 -0.373913,0.09732 -0.100735,0.073417 -0.100735,0.1639074 0,0.1024421 0.119516,0.1707368 0.08195,0.047806 0.310741,0.073417 0.298789,0.03244 0.41489,0.073417 0.165615,0.059758 0.245861,0.1656147 0.08195,0.1058568 0.08195,0.2287873 0,0.1826884 -0.175859,0.3261073 -0.175859,0.1417116 -0.515625,0.1417116 -0.339766,0 -0.556602,-0.1724442 0,0.058051 -0.0068,0.075124 -0.0068,0.017074 -0.02561,0.029025 -0.01707,0.011951 -0.03927,0.011951 -0.03073,0 -0.05122,-0.022196 -0.02049,-0.022196 -0.02049,-0.073417 V 4.1500216 q 0,-0.051221 0.01878,-0.073417 0.02049,-0.022196 0.05293,-0.022196 0.03073,0 0.05122,0.022196 0.0222,0.020488 0.0222,0.056343 0,0.078539 0.03927,0.1314673 0.05976,0.081954 0.189518,0.1365895 0.131467,0.052928 0.320985,0.052928 0.280008,0 0.416598,-0.1041495 0.136589,-0.1041494 0.136589,-0.2202505 0,-0.1331747 -0.138297,-0.213421 -0.140004,-0.080246 -0.408061,-0.1075642 -0.266349,-0.027318 -0.38245,-0.071709 -0.116101,-0.044392 -0.180981,-0.1331747 -0.06488,-0.088783 -0.06488,-0.1912252 0,-0.1843958 0.180981,-0.29196 0.180981,-0.1092715 0.431964,-0.1092715 0.297082,0 0.483185,0.1451263 z"
             id="text3"
             style="font-size:3.49669px;font-family:Monospace;-inkscape-font-specification:Monospace;fill:url(#linearGradient4);fill-rule:evenodd;stroke-width:0.740134;stroke-linecap:round;stroke-linejoin:round;stroke-miterlimit:3.6;stroke-dasharray:5.92105, 1.48027, 0.740134, 1.48027;paint-order:markers fill stroke"
             transform="scale(0.94243148,1.0610851)"
             aria-label="error os" /><path
             class="st26"
             d="M 11.300844,2.0108335 10.930426,2.3812501 10.560008,2.0108335 10.930426,1.6404168 11.300844,2.0108335"
             id="path278"
             style="opacity:0.71;fill:#d6d6d6;fill-opacity:1;stroke:#000000;stroke-width:0.146349;stroke-dasharray:none;stroke-opacity:0.129032"
             clip-path="url(#clipPath1-0)"
             transform="matrix(0.67246602,0,0,0.6943005,3.4867278,3.3288149)" /></g></g><g
         id="g4"
         transform="translate(604.21458,-147.02107)"
         style="filter:url(#filter4)"
         inkscape:export-filename="g3.png"
         inkscape:export-xdpi="19.463888"
         inkscape:export-ydpi="19.463888"><path
           d="M 826.56279,279.0345 H 696.79826 q -3.48518,0 -4.99542,-1.39407 -1.51024,-1.2779 -1.51024,-3.48517 0,-2.20728 1.51024,-3.60134 1.51024,-1.2779 4.99542,-1.2779 h 129.76453 q 3.60134,0 4.99541,1.2779 1.51024,1.39406 1.51024,3.60134 0,2.20727 -1.51024,3.48517 -1.39407,1.39407 -4.99541,1.39407 z"
           id="path1"
           style="font-size:237.921px;font-family:Monospace;-inkscape-font-specification:Monospace;fill:url(#linearGradient2);fill-rule:evenodd;stroke-width:2.61592;stroke-linecap:round;stroke-linejoin:round;stroke-miterlimit:3.6;stroke-dasharray:10.4637, 5.23185, 2.61592, 5.23185"
           transform="scale(0.99377461,1.0062644)"
           aria-label="_" /><g
           id="g3"
           transform="matrix(84.059652,0,0,79.854095,-616.03785,-108.12447)"><text
             xml:space="preserve"
             style="font-size:1px;font-family:Consolas;-inkscape-font-specification:Consolas;text-align:start;writing-mode:lr-tb;direction:ltr;text-anchor:start;opacity:1;fill:#000000;fill-opacity:0.533333;fill-rule:evenodd;stroke:#f3f3f3;stroke-width:0.211667;stroke-linecap:round;stroke-linejoin:round;stroke-miterlimit:3.6;stroke-dasharray:1.69333, 0.423333, 0.211667, 0.423333;paint-order:markers fill stroke"
             x="1.057554"
             y="2.3335159"
             id="text1"><tspan
               id="tspan1"
               style="font-size:1px;stroke-width:0.211667"
               x="1.057554"
               y="2.3335159" /></text><path
             d="M 1.7558803,3.8358659 H 0.29437318 q 0.0375621,0.278301 0.23220207,0.4490378 0.19634735,0.1690295 0.48489255,0.1690295 0.1604926,0 0.3363515,-0.052928 0.175859,-0.052929 0.2868379,-0.1400042 0.03244,-0.025611 0.056343,-0.025611 0.027318,0 0.047806,0.022196 0.020488,0.020488 0.020488,0.049514 0,0.029025 -0.027318,0.056343 -0.081954,0.085368 -0.29196,0.1604926 -0.2082989,0.073417 -0.4285494,0.073417 -0.36879151,0 -0.6163599,-0.2407389 -0.24586101,-0.2424463 -0.24586101,-0.5856273 0,-0.3124484 0.2304947,-0.5361136 0.23220207,-0.2236652 0.57367571,-0.2236652 0.3517178,0 0.5787978,0.2304947 0.22708,0.2287873 0.2236652,0.5941641 z M 1.610754,3.6907396 Q 1.5680698,3.4534154 1.3853814,3.3048744 1.2044004,3.1563334 0.9534173,3.1563334 q -0.25098312,0 -0.43196415,0.1468336 -0.18098103,0.1468337 -0.2253726,0.3875726 z M 2.9066465,3.0624281 v 0.3619621 q 0.2800084,-0.2526905 0.4183052,-0.3244 0.1400042,-0.073417 0.2578126,-0.073417 0.1280526,0 0.2373242,0.087076 0.1109789,0.085368 0.1109789,0.12976 0,0.03244 -0.022196,0.054636 -0.020489,0.020488 -0.052929,0.020488 -0.017074,0 -0.029025,-0.00512 -0.011952,-0.00683 -0.044392,-0.039269 Q 3.7227674,3.2143862 3.678376,3.1921902 3.633984,3.1699942 3.5913,3.1699942 q -0.093905,0 -0.22708,0.075124 -0.1314673,0.075124 -0.4575747,0.3670842 V 4.39759 h 0.635141 q 0.052928,0 0.075124,0.020488 0.022196,0.018781 0.022196,0.051221 0,0.030733 -0.022196,0.051221 -0.022196,0.020488 -0.075124,0.020488 H 2.4166319 q -0.051221,0 -0.073417,-0.018781 -0.022196,-0.020488 -0.022196,-0.051221 0,-0.029025 0.020489,-0.047806 0.022196,-0.020488 0.075124,-0.020488 H 2.7632276 V 3.2075544 H 2.4985855 q -0.051221,0 -0.073417,-0.020488 -0.022196,-0.020488 -0.022196,-0.052928 0,-0.030733 0.020488,-0.051221 0.022196,-0.020488 0.075124,-0.020488 z m 2.0983556,0 v 0.3619621 q 0.2800083,-0.2526905 0.4183052,-0.3244 0.1400042,-0.073417 0.2578126,-0.073417 0.1280526,0 0.2373241,0.087076 0.110979,0.085368 0.110979,0.12976 0,0.03244 -0.022196,0.054636 -0.020488,0.020488 -0.052928,0.020488 -0.017074,0 -0.029025,-0.00512 -0.011952,-0.00683 -0.044392,-0.039269 -0.059758,-0.059758 -0.1041494,-0.081954 -0.044392,-0.022196 -0.087076,-0.022196 -0.093905,0 -0.22708,0.075124 Q 5.3311093,3.3202422 5.005002,3.6122024 V 4.39759 h 0.635141 q 0.052928,0 0.075124,0.020488 0.022196,0.018781 0.022196,0.051221 0,0.030733 -0.022196,0.051221 Q 5.693071,4.541008 5.640143,4.541008 H 4.5149874 q -0.051221,0 -0.073417,-0.018781 -0.022196,-0.020488 -0.022196,-0.051221 0,-0.029025 0.020488,-0.047806 0.022196,-0.020488 0.075124,-0.020488 H 4.8615831 V 3.2075544 h -0.264642 q -0.051221,0 -0.073417,-0.020488 -0.022196,-0.020488 -0.022196,-0.052928 0,-0.030733 0.020488,-0.051221 0.022196,-0.020488 0.075124,-0.020488 z m 3.0715556,0.7427052 q 0,0.3278147 -0.2356168,0.5600167 Q 7.6070315,4.5973521 7.275802,4.5973521 6.9411579,4.5973521 6.7072484,4.36515 6.473339,4.1312406 6.473339,3.8051333 q 0,-0.3278147 0.2339094,-0.5600168 0.2339095,-0.2339094 0.5685536,-0.2339094 0.3312295,0 0.5651389,0.232202 0.2356168,0.2322021 0.2356168,0.5617242 z m -0.1451263,0 q 0,-0.2697642 -0.1929326,-0.4592821 -0.1912252,-0.1895178 -0.4644041,-0.1895178 -0.273179,0 -0.4661116,0.1912252 -0.1912252,0.1895179 -0.1912252,0.4575747 0,0.2663494 0.1912252,0.4575746 0.1929326,0.1912253 0.4661116,0.1912253 0.2731789,0 0.4644041,-0.1895179 0.1929326,-0.1912252 0.1929326,-0.459282 z M 9.2017131,3.0624281 v 0.3619621 q 0.2800084,-0.2526905 0.4183052,-0.3244 0.1400042,-0.073417 0.2578126,-0.073417 0.1280531,0 0.2373241,0.087076 0.110979,0.085368 0.110979,0.12976 0,0.03244 -0.0222,0.054636 -0.02049,0.020488 -0.05293,0.020488 -0.01707,0 -0.02902,-0.00512 -0.01195,-0.00683 -0.04439,-0.039269 -0.05976,-0.059758 -0.1041495,-0.081954 -0.044391,-0.022196 -0.087076,-0.022196 -0.093905,0 -0.22708,0.075124 -0.1314673,0.075124 -0.4575747,0.3670842 V 4.39759 h 0.635141 q 0.052928,0 0.075124,0.020488 0.022196,0.018781 0.022196,0.051221 0,0.030733 -0.022196,0.051221 -0.022196,0.020488 -0.075124,0.020488 H 8.7116985 q -0.051221,0 -0.073417,-0.018781 -0.022196,-0.020488 -0.022196,-0.051221 0,-0.029025 0.020488,-0.047806 0.022196,-0.020488 0.075124,-0.020488 H 9.0582942 V 3.2075544 H 8.7936521 q -0.051221,0 -0.073417,-0.020488 -0.022196,-0.020488 -0.022196,-0.052928 0,-0.030733 0.020488,-0.051221 0.022196,-0.020488 0.075124,-0.020488 z m 5.1699119,0.7427052 q 0,0.3278147 -0.235617,0.5600167 -0.23391,0.2322021 -0.565139,0.2322021 -0.334644,0 -0.568554,-0.2322021 -0.233909,-0.2339094 -0.233909,-0.5600167 0,-0.3278147 0.233909,-0.5600168 0.23391,-0.2339094 0.568554,-0.2339094 0.331229,0 0.565139,0.232202 0.235617,0.2322021 0.235617,0.5617242 z m -0.145127,0 q 0,-0.2697642 -0.192932,-0.4592821 -0.191226,-0.1895178 -0.464405,-0.1895178 -0.273178,0 -0.466111,0.1912252 -0.191225,0.1895179 -0.191225,0.4575747 0,0.2663494 0.191225,0.4575746 0.192933,0.1912253 0.466111,0.1912253 0.273179,0 0.464405,-0.1895179 0.192932,-0.1912252 0.192932,-0.459282 z m 1.915667,-0.6487999 q 0,-0.049514 0.02049,-0.071709 0.02049,-0.022196 0.05122,-0.022196 0.03244,0 0.05293,0.022196 0.02049,0.022196 0.02049,0.075124 v 0.245861 q 0,0.051221 -0.02049,0.073417 -0.02049,0.022196 -0.05293,0.022196 -0.02903,0 -0.04951,-0.018781 -0.01878,-0.018781 -0.0222,-0.061465 -0.01024,-0.1024421 -0.105857,-0.1690294 -0.140004,-0.095613 -0.370499,-0.095613 -0.240738,0 -0.373913,0.09732 -0.100735,0.073417 -0.100735,0.1639074 0,0.1024421 0.119516,0.1707368 0.08195,0.047806 0.310741,0.073417 0.298789,0.03244 0.41489,0.073417 0.165615,0.059758 0.245861,0.1656147 0.08195,0.1058568 0.08195,0.2287873 0,0.1826884 -0.175859,0.3261073 -0.175859,0.1417116 -0.515625,0.1417116 -0.339766,0 -0.556602,-0.1724442 0,0.058051 -0.0068,0.075124 -0.0068,0.017074 -0.02561,0.029025 -0.01707,0.011951 -0.03927,0.011951 -0.03073,0 -0.05122,-0.022196 -0.02049,-0.022196 -0.02049,-0.073417 V 4.1500216 q 0,-0.051221 0.01878,-0.073417 0.02049,-0.022196 0.05293,-0.022196 0.03073,0 0.05122,0.022196 0.0222,0.020488 0.0222,0.056343 0,0.078539 0.03927,0.1314673 0.05976,0.081954 0.189518,0.1365895 0.131467,0.052928 0.320985,0.052928 0.280008,0 0.416598,-0.1041495 0.136589,-0.1041494 0.136589,-0.2202505 0,-0.1331747 -0.138297,-0.213421 -0.140004,-0.080246 -0.408061,-0.1075642 -0.266349,-0.027318 -0.38245,-0.071709 -0.116101,-0.044392 -0.180981,-0.1331747 -0.06488,-0.088783 -0.06488,-0.1912252 0,-0.1843958 0.180981,-0.29196 0.180981,-0.1092715 0.431964,-0.1092715 0.297082,0 0.483185,0.1451263 z"
             id="path2"
             style="font-size:3.49669px;font-family:Monospace;-inkscape-font-specification:Monospace;fill:url(#linearGradient6);fill-rule:evenodd;stroke-width:0.740134;stroke-linecap:round;stroke-linejoin:round;stroke-miterlimit:3.6;stroke-dasharray:5.92105, 1.48027, 0.740134, 1.48027;paint-order:markers fill stroke"
             transform="scale(0.94243148,1.0610851)"
             aria-label="error os" /><path
             class="st26"
             d="M 11.300844,2.0108335 10.930426,2.3812501 10.560008,2.0108335 10.930426,1.6404168 11.300844,2.0108335"
             id="path3"
             style="opacity:0.71;fill:#d6d6d6;fill-opacity:1;stroke:#000000;stroke-width:0.146349;stroke-dasharray:none;stroke-opacity:0.129032"
             clip-path="url(#clipPath1-0)"
             transform="matrix(0.67246602,0,0,0.6943005,3.4867278,3.3288149)" /></g></g></g><rect
       style="opacity:0.998217;fill:#ffffff;fill-rule:evenodd;stroke-width:3.79747;stroke-linecap:round;stroke-linejoin:round;stroke-miterlimit:3.6;stroke-dasharray:7.59495, 3.79747, 1.89873, 3.79747"
       id="rect1"
       width="1297.4089"
       height="118.33045"
       x="937.35284"
       y="2401.0464"
       ry="10.626917" /><text
       xml:space="preserve"
       style="font-size:57.6px;font-family:Monospace;-inkscape-font-specification:Monospace;text-align:start;writing-mode:lr-tb;direction:ltr;text-anchor:start;opacity:0.998217;fill:#000000;fill-opacity:1;fill-rule:evenodd;stroke:#000000;stroke-width:5.3;stroke-linecap:round;stroke-linejoin:round;stroke-miterlimit:3.6;stroke-dasharray:10.6, 5.3, 2.65, 5.3;stroke-opacity:1"
       x="971.16156"
       y="2477.116"
       id="text4"><tspan
         sodipodi:role="line"
         id="tspan3"
         x="971.16156"
         y="2477.116">A proud operating system project of </tspan></text><rect
       style="opacity:0.998217;fill:#ffffff;fill-rule:evenodd;stroke-width:2.62775;stroke-linecap:round;stroke-linejoin:round;stroke-miterlimit:3.6;stroke-dasharray:5.25551, 2.62775, 1.31387, 2.62775"
       id="rect8"
       width="621.2348"
       height="118.33045"
       x="-2894.0315"
       y="2401.0464"
       ry="10.626917"
       transform="scale(-1,1)" /><rect
       style="opacity:0.998217;fill:url(#radialGradient8);fill-rule:evenodd;stroke-width:2.3995;stroke-linecap:round;stroke-linejoin:round;stroke-miterlimit:3.6;stroke-dasharray:4.799, 2.3995, 1.19974, 2.3995"
       id="rect6"
       width="604.33044"
       height="101.4261"
       x="-2889.8052"
       y="2409.4985"
       ry="9.1087856"
       transform="scale(-1,1)" /><text
       xml:space="preserve"
       style="font-size:75.549px;font-family:Monospace;-inkscape-font-specification:Monospace;text-align:start;writing-mode:lr-tb;direction:ltr;text-anchor:start;opacity:0.998217;fill:#000000;fill-opacity:1;fill-rule:evenodd;stroke:#000000;stroke-width:6.95156;stroke-linecap:round;stroke-linejoin:round;stroke-miterlimit:3.6;stroke-dasharray:13.9031, 6.95156, 3.47578, 6.95156;stroke-opacity:1"
       x="2374.1902"
       y="2445.9702"
       id="text8"
       transform="scale(0.98581928,1.0143847)"><tspan
         sodipodi:role="line"
         id="tspan8"
         x="2374.1902"
         y="2445.9702"
         style="stroke-width:6.95156">Banglade</tspan></text><text
       xml:space="preserve"
       style="font-size:75.549px;font-family:Monospace;-inkscape-font-specification:Monospace;text-align:start;writing-mode:lr-tb;direction:ltr;text-anchor:start;opacity:0.998217;fill:#ffffff;fill-opacity:1;fill-rule:evenodd;stroke:#ffffff;stroke-width:6.95156;stroke-linecap:round;stroke-linejoin:round;stroke-miterlimit:3.6;stroke-dasharray:13.9031, 6.95156, 3.47578, 6.95156;stroke-opacity:1"
       x="2742.8618"
       y="2445.9702"
       id="text9"
       transform="scale(0.98581928,1.0143847)"><tspan
         sodipodi:role="line"
         id="tspan9"
         x="2742.8618"
         y="2445.9702"
         style="stroke-width:6.95156;fill:#ffffff;stroke:#ffffff;stroke-opacity:1">sh</tspan><tspan
         sodipodi:role="line"
         x="2742.8618"
         y="2540.4065"
         style="stroke-width:6.95156;fill:#ffffff;stroke:#ffffff;stroke-opacity:1"
         id="tspan10" /></text></g></svg>
