<?xml version="1.0" encoding="UTF-8" standalone="no"?>
<!-- Created with Inkscape (http://www.inkscape.org/) -->

<svg
   width="514.62567"
   height="515.50079"
   viewBox="0 0 514.62567 515.50079"
   version="1.1"
   id="svg1"
   inkscape:version="1.4.2 (f4327f4, 2025-05-13)"
   sodipodi:docname="err_.svg"
   inkscape:export-filename="err_.svg"
   inkscape:export-xdpi="96"
   inkscape:export-ydpi="96"
   xmlns:inkscape="http://www.inkscape.org/namespaces/inkscape"
   xmlns:sodipodi="http://sodipodi.sourceforge.net/DTD/sodipodi-0.dtd"
   xmlns:xlink="http://www.w3.org/1999/xlink"
   xmlns="http://www.w3.org/2000/svg"
   xmlns:svg="http://www.w3.org/2000/svg">
  <sodipodi:namedview
     id="namedview1"
     pagecolor="#ffffff"
     bordercolor="#000000"
     borderopacity="0.25"
     inkscape:showpageshadow="2"
     inkscape:pageopacity="0.0"
     inkscape:pagecheckerboard="0"
     inkscape:deskcolor="#d1d1d1"
     inkscape:document-units="px"
     inkscape:zoom="1.2201726"
     inkscape:cx="257.34064"
     inkscape:cy="257.75042"
     inkscape:window-width="1440"
     inkscape:window-height="829"
     inkscape:window-x="-8"
     inkscape:window-y="-8"
     inkscape:window-maximized="1"
     inkscape:current-layer="layer1">
    <inkscape:page
       x="0"
       y="0"
       width="514.62567"
       height="515.50079"
       id="page2"
       margin="0"
       bleed="0" />
  </sodipodi:namedview>
  <defs
     id="defs1">
    <linearGradient
       id="linearGradient4"
       inkscape:collect="always">
      <stop
         style="stop-color:#ffffff;stop-opacity:1;"
         offset="0"
         id="stop4" />
      <stop
         style="stop-color:#999999;stop-opacity:0.34304932;"
         offset="1"
         id="stop5" />
    </linearGradient>
    <rect
       x="82.270088"
       y="101.52479"
       width="476.11624"
       height="266.06497"
       id="rect4" />
    <linearGradient
       id="linearGradient1"
       inkscape:collect="always">
      <stop
         style="stop-color:#2b2b3e;stop-opacity:1;"
         offset="0"
         id="stop1" />
      <stop
         style="stop-color:#000000;stop-opacity:1;"
         offset="1"
         id="stop2" />
    </linearGradient>
    <radialGradient
       inkscape:collect="always"
       xlink:href="#linearGradient1"
       id="radialGradient2"
       cx="-127.173"
       cy="-29.423861"
       fx="-127.173"
       fy="-29.423861"
       r="257.31284"
       gradientTransform="matrix(3.942579,1.7850785,-0.81873972,1.8081419,498.30421,465.76159)"
       gradientUnits="userSpaceOnUse" />
    <linearGradient
       inkscape:collect="always"
       xlink:href="#linearGradient4"
       id="linearGradient5"
       x1="91.457031"
       y1="213.53456"
       x2="168.95898"
       y2="416.72702"
       gradientUnits="userSpaceOnUse" />
  </defs>
  <g
     inkscape:label="Layer 1"
     inkscape:groupmode="layer"
     id="layer1"
     transform="translate(1.7504274,2.6256411)">
    <rect
       style="fill:url(#radialGradient2);fill-opacity:1;fill-rule:evenodd"
       id="rect1"
       width="514.62567"
       height="515.50085"
       x="-1.7504274"
       y="-2.6256411"
       rx="33.96381"
       ry="30.670918" />
    <path
       d="m 91.457031,217.70643 85.124999,-47.4375 q 2.0625,-1.125 3.09375,-1.125 1.59375,0 2.71875,1.21875 1.21875,1.125 1.21875,2.71875 0,2.34375 -3.1875,4.125 l -72.9375,40.5 72.84375,40.5 q 3.1875,1.78125 3.1875,4.125 0,1.59375 -1.21875,2.8125 -1.125,1.125 -2.71875,1.125 -1.03125,0 -3.09375,-1.125 z m 171.187499,-55.03125 -3.5625,63.5625 q -0.1875,3 -1.3125,4.21875 -1.03125,1.21875 -2.625,1.21875 -1.6875,0 -2.8125,-1.21875 -1.03125,-1.21875 -1.21875,-4.21875 l -3.46875,-63.5625 q -0.1875,-2.25 -0.1875,-3.28125 0,-3.1875 2.15625,-5.34375 2.25,-2.15625 5.53125,-2.15625 3.28125,0 5.4375,2.15625 2.15625,2.15625 2.15625,5.4375 0,0.9375 -0.0937,3.1875 z m -9.375,93 h 3.65625 q 4.03125,0 6.84375,2.90625 2.90625,2.8125 2.90625,6.84375 0,4.125 -2.90625,6.9375 -2.90625,2.8125 -6.84375,2.8125 h -3.65625 q -4.03125,0 -6.9375,-2.8125 -2.8125,-2.90625 -2.8125,-6.84375 0,-4.21875 2.90625,-7.03125 2.90625,-2.8125 6.84375,-2.8125 z m 165.46875,-37.96875 -85.125,47.4375 q -2.0625,1.125 -3.09375,1.125 -1.59375,0 -2.8125,-1.125 -1.125,-1.21875 -1.125,-2.8125 0,-2.34375 3.1875,-4.125 l 72.9375,-40.5 -72.84375,-40.5 q -3.1875,-1.78125 -3.1875,-4.125 0,-1.59375 1.125,-2.71875 1.21875,-1.21875 2.8125,-1.21875 1.03125,0 3.09375,1.125 z"
       id="text4"
       style="font-size:192px;font-family:Monospace;-inkscape-font-specification:Monospace;white-space:pre;fill:url(#linearGradient5);fill-rule:evenodd"
       transform="matrix(1.5401872,0,0,2.306276,-138.67573,-236.92476)"
       aria-label="&lt;!&gt;" />
  </g>
</svg>
