<?xml version="1.0" encoding="UTF-8" standalone="no"?>
<svg
   width="800px"
   height="800px"
   viewBox="0 0 48 48"
   version="1"
   id="svg18"
   sodipodi:docname="home.svg"
   inkscape:version="1.4.3 (0d15f75, 2025-12-25)"
   xmlns:inkscape="http://www.inkscape.org/namespaces/inkscape"
   xmlns:sodipodi="http://sodipodi.sourceforge.net/DTD/sodipodi-0.dtd"
   xmlns="http://www.w3.org/2000/svg"
   xmlns:svg="http://www.w3.org/2000/svg">
  <defs
     id="defs18">
    <filter
       inkscape:collect="always"
       style="color-interpolation-filters:sRGB"
       id="filter18"
       x="-0.087861596"
       y="-0.087861596"
       width="1.1757232"
       height="1.1757232">
      <feGaussianBlur
         inkscape:collect="always"
         stdDeviation="0.25626298"
         id="feGaussianBlur18" />
    </filter>
    <filter
       inkscape:collect="always"
       style="color-interpolation-filters:sRGB"
       id="filter19"
       x="-0.048945346"
       y="-0.044976804"
       width="1.0978907"
       height="1.0899536">
      <feGaussianBlur
         inkscape:collect="always"
         stdDeviation="0.69339239"
         id="feGaussianBlur19" />
    </filter>
    <filter
       inkscape:collect="always"
       style="color-interpolation-filters:sRGB"
       id="filter20"
       x="-0.039554623"
       y="-0.090319251"
       width="1.0791092"
       height="1.1806385">
      <feGaussianBlur
         inkscape:collect="always"
         stdDeviation="0.65924387"
         id="feGaussianBlur20" />
    </filter>
    <filter
       inkscape:collect="always"
       style="color-interpolation-filters:sRGB"
       id="filter21"
       x="-0.24491103"
       y="-0.6839697"
       width="1.4898221"
       height="2.3679394">
      <feGaussianBlur
         inkscape:collect="always"
         stdDeviation="0.61227754"
         id="feGaussianBlur21" />
    </filter>
  </defs>
  <sodipodi:namedview
     id="namedview18"
     pagecolor="#ffffff"
     bordercolor="#000000"
     borderopacity="0.25"
     inkscape:showpageshadow="2"
     inkscape:pageopacity="0.0"
     inkscape:pagecheckerboard="0"
     inkscape:deskcolor="#d1d1d1"
     inkscape:zoom="0.73125"
     inkscape:cx="400"
     inkscape:cy="400"
     inkscape:window-width="1440"
     inkscape:window-height="829"
     inkscape:window-x="-8"
     inkscape:window-y="-8"
     inkscape:window-maximized="1"
     inkscape:current-layer="svg18" />
  <path
     style="opacity:0.81647059;filter:url(#filter19);fill:#000000;fill-opacity:1"
     d="M 41,43.22369 V 21.405505 L 38.230107,18.62574 C 37.550857,17.94407 33.346099,14.227188 32.419943,14.048565 L 24.256835,8 15.043951,14.328652 C 14.256985,14.869246 10.248317,18.200878 9.5911911,18.905826 L 7.0000002,21.685592 V 43.22369 C 7.0000002,44.207766 7.7582001,45 8.7000003,45 H 39.300002 C 40.2418,45 41,44.207766 41,43.22369 Z"
     id="path1" />
  <path
     style="fill:#b1b1b1;fill-opacity:1"
     d="M 41,42.22369 V 20.405505 L 38.230107,17.62574 C 37.550857,16.94407 33.346099,13.227188 32.419943,13.048565 L 24.256835,7 15.043951,13.328652 C 14.256985,13.869246 10.248317,17.200878 9.5911911,17.905826 L 7.0000002,20.685592 V 42.22369 C 7.0000002,43.207766 7.7582001,44 8.7000003,44 H 39.300002 C 40.2418,44 41,43.207766 41,42.22369 Z"
     id="path2" />
  <rect
     style="opacity:0.15"
     width="34"
     height="1"
     x="7"
     y="20"
     id="rect2" />
  <rect
     style="fill:#1d1d1d;fill-opacity:1"
     width="6"
     height="10.5"
     x="8"
     y="7"
     rx="1.069"
     ry="1.147"
     id="rect3" />
  <path
     style="fill:#919191;fill-opacity:1"
     d="M 27.708333,24.999999 C 26.226654,24.999999 25,26.226653 25,27.708331 V 35.291667 C 25,36.773344 26.226654,38 27.708333,38 H 35.291667 C 36.773345,38 38.000001,36.773344 38.000001,35.291667 V 27.708331 C 38.000001,26.226653 36.773345,24.999999 35.291667,24.999999 Z"
     id="path3" />
  <path
     style="opacity:0.2;filter:url(#filter18)"
     d="M 28.437502,29 C 28.179992,29 28,29.179989 28,29.4375 V 35.5625 C 28,35.82001 28.179992,36 28.437502,36 H 34.562499 C 34.820009,36 35,35.82001 35,35.5625 V 29.4375 C 35,29.179989 34.820009,29 34.562499,29 Z"
     id="path4" />
  <path
     style="fill:#c2eeff"
     d="M 28.437502,28 C 28.179992,28 28,28.179989 28,28.4375 V 34.5625 C 28,34.82001 28.179992,35 28.437502,35 H 34.562499 C 34.820009,35 35,34.82001 35,34.5625 V 28.4375 C 35,28.179989 34.820009,28 34.562499,28 Z"
     id="path5" />
  <rect
     style="fill:#7a7a7a;fill-opacity:1"
     width="10"
     height="16"
     x="10"
     y="25"
     rx="1.5"
     ry="1.5"
     id="rect5" />
  <circle
     style="opacity:0.2"
     cx="17.5"
     cy="33.5"
     r="1.5"
     id="circle5" />
  <circle
     style="fill:#ffffff"
     cx="17.5"
     cy="32.5"
     r="1.5"
     id="circle6" />
  <path
     style="opacity:0.05"
     d="M 10.032429,17.126797 C 9.449646,17.611164 8.9705593,18.021833 8.7794786,18.218014 L 6.0416934,21.027896 V 20.055584 H 10.032429 Z"
     id="path6" />
  <path
     style="opacity:0.15"
     d="M 14,14 C 13.074911,14.670564 11.300496,16.047885 10,17.111448 V 20 H 14 Z"
     id="path7" />
  <path
     style="opacity:0.05"
     d="M 18,12 14.517578,14.088187 C 14.424341,14.144105 14.168909,14.323895 14,14.437405 V 20 H 18 Z"
     id="path8" />
  <path
     style="opacity:0.15"
     d="M 22,9 18,11.538452 V 20 H 22 Z"
     id="path9" />
  <path
     style="opacity:0.05"
     d="M 24,8 22,9.3904835 V 20 H 27 V 9.1414688 Z"
     id="path10" />
  <path
     style="opacity:0.15"
     d="M 27,9 V 20 H 31 V 11.673576 Z"
     id="path11" />
  <path
     style="opacity:0.15;stroke-width:0.391063"
     d="m 31.133332,27.901026 v 6.979487 h 0.964103 l -0.01977,-6.949073 z"
     id="path11-8"
     sodipodi:nodetypes="ccccc" />
  <path
     style="opacity:0.15;stroke-width:0.391063"
     d="m 34.935037,32.177517 -6.978153,0.136429 0.01885,0.963918 6.947358,-0.1556 z"
     id="path11-8-2"
     sodipodi:nodetypes="ccccc" />
  <path
     style="opacity:0.15;stroke-width:0.391063"
     d="m 35.015588,29.399486 -6.978153,0.136429 0.01885,0.963918 6.947358,-0.1556 z"
     id="path11-8-2-5"
     sodipodi:nodetypes="ccccc" />
  <path
     style="opacity:0.05"
     d="M 31,12 V 20 H 35 V 14.400697 C 34.528886,14.117333 34.130458,13.909351 33.916016,13.8735 Z"
     id="path12" />
  <path
     style="opacity:0.15"
     d="M 35,14 V 20 H 39 V 17.025573 C 37.865714,16.088013 36.1735,14.756341 35,14 Z"
     id="path13" />
  <path
     style="opacity:0.05"
     d="M 37.967582,16.998189 V 20.055584 H 41.958317 V 20.745349 L 39.031517,17.933518 C 38.861734,17.770449 38.459176,17.416828 37.967582,16.998189 Z"
     id="path14" />
  <path
     style="fill:none;stroke:#272727;stroke-width:4;stroke-linecap:round;stroke-linejoin:round;stroke-opacity:1"
     d="M 24,6 6,21"
     id="path15" />
  <path
     style="display:inline;fill:none;stroke:#282828;stroke-width:4;stroke-linecap:round;stroke-linejoin:round;fill-opacity:1;stroke-opacity:1"
     d="M 23.999994,6 42,21"
     id="path16" />
  <path
     style="opacity:0.929412;fill:#ffffff;filter:url(#filter20)"
     d="m 23.861308,3.5721655 a 2.0002,2.0002 0 0 0 -0.04297,0.00391 2.0002,2.0002 0 0 0 -1.427735,0.6816407 L 4.6366987,19.052635 A 2.0010761,2.0010761 0 0 0 3.9824018,21.087791 2.0010761,2.0010761 0 0 1 4.6366987,20.052635 L 22.390605,5.2577124 a 2.0002,2.0002 0 0 1 1.427735,-0.6816407 2.0002,2.0002 0 0 1 0.04297,-0.00391 2.0002,2.0002 0 0 1 0.04297,0 2.0002,2.0002 0 0 1 0.01953,0 2.0002,2.0002 0 0 1 1.53711,0.6972656 l 0.002,0.00391 17.736328,14.7792976 a 2.0010761,2.0010761 0 0 1 0.65625,1.037109 2.0010761,2.0010761 0 0 0 -0.65625,-2.037109 L 25.462871,4.2733374 l -0.002,-0.00391 a 2.0002,2.0002 0 0 0 -1.53711,-0.6972656 2.0002,2.0002 0 0 0 -0.01953,0 2.0002,2.0002 0 0 0 -0.04297,0 z"
     id="path17" />
  <path
     style="fill:#ffffff;opacity:1;filter:url(#filter21)"
     d="M 9.0703125 7 C 8.4778095 7 8 7.5127225 8 8.1484375 L 8 9.1484375 C 8 8.5127225 8.4778095 8 9.0703125 8 L 12.929688 8 C 13.52219 8 14 8.5127225 14 9.1484375 L 14 8.1484375 C 14 7.5127225 13.52219 7 12.929688 7 L 9.0703125 7 z"
     id="path18" />
</svg>
