<?xml version="1.0" encoding="UTF-8" standalone="no"?>
<svg
   width="48"
   height="48"
   version="1.1"
   id="svg18"
   xmlns:xlink="http://www.w3.org/1999/xlink"
   xmlns="http://www.w3.org/2000/svg"
   xmlns:svg="http://www.w3.org/2000/svg">
  <defs
     id="defs18">
    <linearGradient
       id="linearGradient29">
      <stop
         style="stop-color:#ffffff;stop-opacity:1;"
         offset="0"
         id="stop29" />
      <stop
         style="stop-color:#cccccc;stop-opacity:1;"
         offset="1"
         id="stop30" />
    </linearGradient>
    <linearGradient
       id="linearGradient27">
      <stop
         style="stop-color:#ffffff;stop-opacity:1;"
         offset="0"
         id="stop27" />
      <stop
         style="stop-color:#c5c5c5;stop-opacity:1;"
         offset="1"
         id="stop28" />
    </linearGradient>
    <filter
       style="color-interpolation-filters:sRGB"
       id="filter19"
       x="-0.051012743"
       y="-0.049983928"
       width="1.1020255"
       height="1.0999679">
      <feGaussianBlur
         stdDeviation="0.55263806"
         id="feGaussianBlur19" />
    </filter>
    <filter
       style="color-interpolation-filters:sRGB"
       id="filter20"
       x="-0.24375"
       y="-0.39"
       width="1.4875"
       height="1.78">
      <feGaussianBlur
         stdDeviation="0.8125"
         id="feGaussianBlur20" />
    </filter>
    <filter
       style="color-interpolation-filters:sRGB"
       id="filter21"
       x="-0.097855309"
       y="-0.083875008"
       width="1.1957106"
       height="1.16775">
      <feGaussianBlur
         stdDeviation="0.48927642"
         id="feGaussianBlur21" />
    </filter>
    <filter
       style="color-interpolation-filters:sRGB"
       id="filter22"
       x="-0.075793356"
       y="-0.049265682"
       width="1.1515867"
       height="1.0985314">
      <feGaussianBlur
         stdDeviation="0.82109467"
         id="feGaussianBlur22" />
    </filter>
    <filter
       style="color-interpolation-filters:sRGB"
       id="filter23"
       x="-0.071110972"
       y="-0.071295575"
       width="1.1422219"
       height="1.1425912">
      <feGaussianBlur
         stdDeviation="0.41481401"
         id="feGaussianBlur23" />
    </filter>
    <filter
       style="color-interpolation-filters:sRGB"
       id="filter24"
       x="-0.051676446"
       y="-0.063551262"
       width="1.1033529"
       height="1.1271025">
      <feGaussianBlur
         stdDeviation="0.30141339"
         id="feGaussianBlur24" />
    </filter>
    <filter
       style="color-interpolation-filters:sRGB"
       id="filter25"
       x="-0.080725942"
       y="-0.086902001"
       width="1.1614519"
       height="1.173804">
      <feGaussianBlur
         stdDeviation="0.40347582"
         id="feGaussianBlur25" />
    </filter>
    <filter
       style="color-interpolation-filters:sRGB"
       id="filter26"
       x="-0.15252826"
       y="-0.3102167"
       width="1.3050565"
       height="1.6204334">
      <feGaussianBlur
         stdDeviation="0.42801723"
         id="feGaussianBlur26" />
    </filter>
    <linearGradient
       xlink:href="#linearGradient27"
       id="linearGradient28"
       x1="-26.04616"
       y1="9.8651934"
       x2="-27.34099"
       y2="13.422707"
       gradientUnits="userSpaceOnUse" />
    <linearGradient
       xlink:href="#linearGradient29"
       id="linearGradient30"
       x1="22.813843"
       y1="11.723027"
       x2="19.028004"
       y2="11.723027"
       gradientUnits="userSpaceOnUse" />
    <filter
       style="color-interpolation-filters:sRGB"
       id="filter30"
       x="-0.40331535"
       y="-0.60827888"
       width="1.8066307"
       height="2.2165578">
      <feGaussianBlur
         stdDeviation="1.1936773"
         id="feGaussianBlur30" />
    </filter>
  </defs>
  <path
     style="opacity:0.2;filter:url(#filter22)"
     d="m 24,5 c -3.878,0 -7,3.568 -7,8 0,10 -6,11 -6,18 0,7.732 5.820298,14 13,14 7.179702,0 13,-6.268 13,-14 0,-7 -6,-8 -6,-18 0,-4.432 -3.122,-8 -7,-8 z"
     id="path1" />
  <path
     style="fill:#000000;fill-opacity:1"
     d="m 24,4 c -3.878,0 -7,3.568 -7,8 0,10 -6,11 -6,18 0,7.731986 5.820298,14 13,14 7.179702,0 13,-6.268014 13,-14 0,-7 -6,-8 -6,-18 0,-4.432 -3.122,-8 -7,-8 z"
     id="path2" />
  <path
     style="opacity:0.1"
     d="m 24,17 c -2.386461,0 -4,2.1408 -4,4.8 0,6 -4,6.6 -4,10.8 0,4.6391 3.581722,8.4 8,8.4 4.418278,0 8,-3.7609 8,-8.4 C 32,28.4 28,27.8 28,21.8 28,19.1408 26.386461,17 24,17 Z"
     id="path3" />
  <path
     style="fill:#ffffff"
     d="m 24,16 c -2.386461,0 -4,2.1408 -4,4.8 0,6 -4,6.6 -4,10.8 0,4.6391 3.581722,8.4 8,8.4 4.418278,0 8,-3.7609 8,-8.4 C 32,27.4 28,26.8 28,20.8 28,18.1408 26.386461,16 24,16 Z"
     id="path4" />
  <path
     style="opacity:0.2;filter:url(#filter23)"
     d="M 16.525707,45.9714 C 16.103856,45.9044 15.730821,45.7791 14.913473,45.4273 13.696577,44.9034 13.129135,44.7335 10.901893,44.2265 9.7909338,43.9737 9.3768982,43.8613 8.4126561,43.5502 8.0619001,43.4371 7.5943969,43.2927 7.3737606,43.2294 6.7748141,43.0575 6.6160227,42.9907 6.39658,42.8183 6.09722,42.5832 5.9577082,42.2205 6.0112141,41.8166 6.0454961,41.5577 6.1360974,41.3089 6.3861778,40.787 6.7204182,40.0893 6.9906044,39.8383 7.041517,39.1517 7.07147,38.7477 7.046917,38.2933 6.944111,37.3473 6.88327,36.7876 6.869373,36.5813 6.868483,36.225 c -9.174e-4,-0.3865 0.00404,-0.9556 0.043924,-1.1028 0.1498588,-0.5536 0.2639111,-0.873 0.794414,-1.0108 0.153555,-0.04 0.2526244,-0.046 0.9732728,-0.06 0.4486061,-0.01 0.8476629,-0.026 0.9051759,-0.039 0.3108235,-0.07 0.5371193,-0.187 0.7480123,-0.3875 0.200888,-0.191 0.338375,-0.3858 0.600587,-0.851 0.408175,-0.7181 1.213399,-0.711 1.870951,-0.7376 0.186425,0.039 0.248408,0.065 0.452588,0.1821 0.205495,0.1184 0.263612,0.165 0.442302,0.3548 0.449674,0.4777 0.664341,0.7725 1.672904,2.2962 0.799367,1.208 1.043608,1.5944 1.365827,2.1612 0.351012,0.6175 0.983786,1.6081 1.218366,1.9074 0.03975,0.051 0.283124,0.359 0.540827,0.6849 0.257714,0.3262 0.493395,0.6313 0.523746,0.6782 0.483963,0.6734 0.82371,1.4471 0.944566,2.2204 0.04062,0.2694 0.04204,0.315 0.0193,0.6235 -0.02884,0.3916 -0.05391,0.559 -0.09647,0.6445 -0.01708,0.034 -0.05461,0.1279 -0.08339,0.2078 -0.370032,1.0283 -1.292374,1.7998 -2.360919,1.975 -0.227227,0.037 -0.677811,0.037 -0.918758,0 z"
     id="path5" />
  <path
     style="fill:#eab108"
     d="M 16.525707,44.9714 C 16.103856,44.9044 15.730821,44.7791 14.913473,44.4273 13.696577,43.9034 13.129135,43.7335 10.901893,43.2265 9.7909338,42.9737 9.3768982,42.8613 8.4126561,42.5502 8.0619001,42.4371 7.5943969,42.2927 7.3737606,42.2294 6.7748141,42.0575 6.6160227,41.9907 6.39658,41.8183 6.09722,41.5832 5.9577082,41.2205 6.0112141,40.8166 6.0454961,40.5577 6.1360974,40.3089 6.3861778,39.787 6.7204182,39.0893 6.9906044,38.8383 7.041517,38.1517 7.07147,37.7477 7.046917,37.2933 6.944111,36.3473 6.88327,35.7876 6.869373,35.5813 6.868483,35.225 c -9.174e-4,-0.3865 0.00404,-0.9556 0.043924,-1.1028 0.1498588,-0.5536 0.2639111,-0.873 0.794414,-1.0108 0.153555,-0.04 0.2526244,-0.046 0.9732728,-0.06 0.4486061,-0.01 0.8476629,-0.026 0.9051759,-0.039 0.3108235,-0.07 0.5371193,-0.187 0.7480123,-0.3875 0.200888,-0.191 0.338375,-0.3858 0.600587,-0.851 0.408175,-0.7181 1.213399,-0.711 1.870951,-0.7376 0.186425,0.039 0.248408,0.065 0.452588,0.1821 0.205495,0.1184 0.263612,0.165 0.442302,0.3548 0.449674,0.4777 0.664341,0.7725 1.672904,2.2962 0.799367,1.208 1.043608,1.5944 1.365827,2.1612 0.351012,0.6175 0.983786,1.6081 1.218366,1.9074 0.03975,0.051 0.283124,0.359 0.540827,0.6849 0.257714,0.3262 0.493395,0.6313 0.523746,0.6782 0.483963,0.6734 0.82371,1.4471 0.944566,2.2204 0.04062,0.2694 0.04204,0.315 0.0193,0.6235 -0.02884,0.3916 -0.05391,0.559 -0.09647,0.6445 -0.01708,0.034 -0.05461,0.1279 -0.08339,0.2078 -0.370032,1.0283 -1.292374,1.7998 -2.360919,1.975 -0.227227,0.037 -0.677811,0.037 -0.918758,0 z"
     id="path6" />
  <path
     style="opacity:0.2;filter:url(#filter21)"
     d="m 34.620226,45.4909 c 0.330904,-0.2324 0.595279,-0.4931 1.141514,-1.1285 0.813205,-0.9461 1.224208,-1.3253 2.905751,-2.6803 0.838813,-0.6756 1.143647,-0.9426 1.832482,-1.6056 0.250603,-0.2411 0.587322,-0.5572 0.748309,-0.7024 0.437006,-0.3939 0.543782,-0.5161 0.657114,-0.7518 0.154648,-0.3213 0.118502,-0.6822 -0.09972,-0.9968 -0.139893,-0.2016 -0.32348,-0.3713 -0.759734,-0.702 -0.58314,-0.4422 -0.749917,-0.8225 -1.086834,-1.3739 -0.198238,-0.3245 -0.371566,-0.7139 -0.688355,-1.5461 -0.187416,-0.4924 -0.263762,-0.6702 -0.415316,-0.9678 -0.164448,-0.3228 -0.198133,-0.3783 -0.295083,-0.4843 -0.364391,-0.3992 -0.768944,-0.534 -1.280004,-0.427 -0.14797,0.031 -0.234941,0.067 -0.855177,0.3572 -0.386626,0.1793 -0.733585,0.333 -0.788164,0.3461 -0.294796,0.072 -0.537759,0.068 -0.803174,-0.01 -0.252867,-0.075 -0.45333,0.02 -0.875685,-0.2585 -0.288934,-0.1892 -0.599051,-0.4253 -0.820967,-0.4866 -0.308331,-0.085 -0.307315,-0.085 -0.595437,-0.053 -0.277353,0.034 -0.481698,0.114 -0.707327,0.2898 -0.142223,0.1105 -0.183934,0.1582 -0.3079,0.3413 -0.124524,0.1848 -0.154138,0.248 -0.225296,0.4811 -0.179049,0.5866 -0.235983,0.9223 -0.444213,2.6154 -0.164882,1.3423 -0.20787,1.7667 -0.24019,2.3744 -0.03519,0.6619 -0.151033,1.7531 -0.223011,2.1009 -0.01208,0.059 -0.08784,0.4179 -0.168159,0.7977 -0.08021,0.3799 -0.150643,0.733 -0.156465,0.7848 -0.124612,0.7643 -0.08342,1.5518 0.144155,2.2475 0.08055,0.2417 0.09884,0.2804 0.250096,0.5282 0.191994,0.3147 0.28492,0.4438 0.357743,0.4972 0.02906,0.021 0.101213,0.084 0.159914,0.1386 0.754975,0.703 1.870902,0.9605 2.856527,0.6597 0.209452,-0.064 0.593527,-0.2528 0.783065,-0.3844 z"
     id="path7" />
  <path
     style="fill:#eab108"
     d="m 34.620226,44.4909 c 0.330904,-0.2324 0.595279,-0.4931 1.141514,-1.1285 0.813205,-0.9461 1.224208,-1.3253 2.905751,-2.6803 0.838813,-0.6756 1.143647,-0.9426 1.832482,-1.6056 0.250603,-0.2411 0.587322,-0.5572 0.748309,-0.7024 0.437006,-0.3939 0.543782,-0.5161 0.657114,-0.7518 0.154648,-0.3213 0.118502,-0.6822 -0.09972,-0.9968 -0.139893,-0.2016 -0.32348,-0.3713 -0.759734,-0.702 -0.58314,-0.4422 -0.749917,-0.8225 -1.086834,-1.3739 -0.198238,-0.3245 -0.371566,-0.7139 -0.688355,-1.5461 -0.187416,-0.4924 -0.263762,-0.6702 -0.415316,-0.9678 -0.164448,-0.3228 -0.198133,-0.3783 -0.295083,-0.4843 -0.364391,-0.3992 -0.768944,-0.534 -1.280004,-0.427 -0.14797,0.031 -0.234941,0.067 -0.855177,0.3572 -0.386626,0.1793 -0.733585,0.333 -0.788164,0.3461 -0.294796,0.072 -0.537759,0.068 -0.803174,-0.01 -0.252867,-0.075 -0.45333,0.02 -0.875685,-0.2585 -0.288934,-0.1892 -0.599051,-0.4253 -0.820967,-0.4866 -0.308331,-0.085 -0.307315,-0.085 -0.595437,-0.053 -0.277353,0.034 -0.481698,0.114 -0.707327,0.2898 -0.142223,0.1105 -0.183934,0.1582 -0.3079,0.3413 -0.124524,0.1848 -0.154138,0.248 -0.225296,0.4811 -0.179049,0.5866 -0.235983,0.9223 -0.444213,2.6154 -0.164882,1.3423 -0.20787,1.7667 -0.24019,2.3744 -0.03519,0.6619 -0.151033,1.7531 -0.223011,2.1009 -0.01208,0.059 -0.08784,0.4179 -0.168159,0.7977 -0.08021,0.3799 -0.150643,0.733 -0.156465,0.7848 -0.124612,0.7643 -0.08342,1.5518 0.144155,2.2475 0.08055,0.2417 0.09884,0.2804 0.250096,0.5282 0.191994,0.3147 0.28492,0.4438 0.357743,0.4972 0.02906,0.021 0.101213,0.084 0.159914,0.1386 0.754975,0.703 1.870902,0.9605 2.856527,0.6597 0.209452,-0.064 0.593527,-0.2528 0.783065,-0.3844 z"
     id="path8" />
  <circle
     style="opacity:0.1"
     cx="21"
     cy="12.9998"
     r="3"
     id="circle8" />
  <path
     style="opacity:0.3;filter:url(#filter20)"
     d="m 28,16 c 0,2.7614 -1.790861,5 -4,5 -2.209139,0 -4,-2.2386 -4,-5 z"
     id="path12" />
  <path
     style="fill:#f77d00;stroke-width:0.89129"
     d="M 28,16.028007 C 28,18.221659 26.209139,20 24,20 21.790861,20 20,18.221659 20,16.028007 Z"
     id="path13" />
  <path
     style="fill:#eab108;stroke-width:0.903043"
     d="M 28,16.145799 C 28,16.553542 26.209139,19 24,19 c -2.209139,0 -4,-2.446458 -4,-2.854201 0,-1.125942 1.790861,-2.038715 4,-2.038715 2.209139,0 4,0.912773 4,2.038715 z"
     id="path14" />
  <path
     style="opacity:0.658974;fill:#ffffff;filter:url(#filter25)"
     d="m 32.832031,31.001953 c -0.0743,-0.0066 -0.146954,0.0016 -0.291015,0.01758 -0.277353,0.034 -0.481403,0.113263 -0.707032,0.289063 -0.142223,0.1105 -0.182674,0.158697 -0.30664,0.341797 -0.124524,0.1848 -0.155405,0.247368 -0.226563,0.480468 -0.179049,0.5866 -0.235129,0.924088 -0.443359,2.617188 -0.164882,1.3423 -0.207914,1.765347 -0.240234,2.373047 -0.03519,0.6619 -0.150679,1.753762 -0.222657,2.101562 -0.01208,0.059 -0.08765,0.417075 -0.167969,0.796875 -0.08021,0.3799 -0.152381,0.733357 -0.158203,0.785157 -0.07273,0.446087 -0.07948,0.898862 -0.03516,1.33789 0.01108,-0.112677 0.01689,-0.225848 0.03516,-0.33789 0.0058,-0.0518 0.07799,-0.405257 0.158203,-0.785157 0.08032,-0.3798 0.155889,-0.737875 0.167969,-0.796875 0.07198,-0.3478 0.187466,-1.439662 0.222657,-2.101562 0.03232,-0.6077 0.07535,-1.030747 0.240234,-2.373047 0.20823,-1.6931 0.26431,-2.030588 0.443359,-2.617188 0.07116,-0.2331 0.102039,-0.295668 0.226563,-0.480468 0.123966,-0.1831 0.164417,-0.231297 0.30664,-0.341797 0.225629,-0.1758 0.429679,-0.255063 0.707032,-0.289063 0.288122,-0.032 0.287372,-0.03226 0.595703,0.05273 0.221916,0.0613 0.533331,0.297128 0.822265,0.486328 0.422355,0.2785 0.622133,0.184765 0.875,0.259765 0.265415,0.078 0.507939,0.08177 0.802735,0.0098 0.05458,-0.0131 0.402436,-0.166403 0.789062,-0.345703 0.620236,-0.2902 0.707499,-0.326422 0.855469,-0.357422 0.51106,-0.107 0.914906,0.02658 1.279297,0.425781 0.09695,0.106 0.130474,0.161575 0.294922,0.484375 0.151554,0.2976 0.228599,0.47635 0.416015,0.96875 0.316789,0.8322 0.489262,1.220422 0.6875,1.544922 0.336917,0.5514 0.504751,0.9328 1.087891,1.375 0.436254,0.3307 0.619873,0.499572 0.759766,0.701172 0.0183,0.02638 0.02723,0.05505 0.04297,0.08203 0.01571,-0.02835 0.0415,-0.0525 0.05664,-0.08398 0.154648,-0.3213 0.118613,-0.683447 -0.09961,-0.998047 -0.139893,-0.2016 -0.323512,-0.370472 -0.759766,-0.701172 -0.58314,-0.4422 -0.750974,-0.8236 -1.087891,-1.375 -0.198238,-0.3245 -0.370711,-0.712722 -0.6875,-1.544922 -0.187416,-0.4924 -0.264461,-0.67115 -0.416015,-0.96875 -0.164448,-0.3228 -0.197972,-0.378375 -0.294922,-0.484375 C 38.196156,31.151581 37.79231,31.018 37.28125,31.125 c -0.14797,0.031 -0.235233,0.06722 -0.855469,0.357422 -0.386626,0.1793 -0.734483,0.332603 -0.789062,0.345703 -0.294796,0.072 -0.53732,0.06823 -0.802735,-0.0098 -0.252867,-0.075 -0.452645,0.01873 -0.875,-0.259765 -0.288934,-0.1892 -0.600349,-0.425028 -0.822265,-0.486328 -0.154166,-0.0425 -0.230385,-0.06369 -0.304688,-0.07031 z"
     id="path15" />
  <path
     style="fill:#333333"
     d="m 34,35 c -1.656854,0 -1.939151,-1.3442 -2,-3 -0.06638,-1.8063 0.115905,-2.8506 3,-3 3.237629,-1.2319 2.163923,5.9038 -1,6 z"
     id="path16" />
  <path
     style="opacity:0.448718;fill:#ffffff;filter:url(#filter19)"
     d="m 24,4 c -3.878,0 -7,3.568 -7,8 0,10 -6,11 -6,18 0,0.18065 0.01909,0.356165 0.02539,0.535156 C 11.292295,23.963685 17,22.766833 17,13 c 0,-4.432 3.122,-8 7,-8 3.878,0 7,3.568 7,8 0,9.766833 5.707705,10.963685 5.974609,17.535156 C 36.980907,30.356165 37,30.18065 37,30 37,23 31,22 31,12 31,7.568 27.878,4 24,4 Z"
     id="path17" />
  <path
     style="opacity:0.641026;fill:#ffffff;filter:url(#filter24)"
     d="m 12.804688,31.037109 c -0.657553,0.0266 -1.462919,0.01823 -1.871094,0.736329 -0.262212,0.4652 -0.398722,0.660562 -0.59961,0.851562 -0.210893,0.2005 -0.437223,0.316719 -0.7480465,0.386719 -0.057513,0.013 -0.4576439,0.02906 -0.90625,0.03906 -0.7206484,0.014 -0.8191013,0.02055 -0.9726563,0.06055 -0.5305029,0.1378 -0.645063,0.458119 -0.7949218,1.011719 -0.039884,0.1472 -0.043886,0.715062 -0.042969,1.101562 1.889e-4,0.07559 0.013941,0.171383 0.015625,0.238282 0.00667,-0.138651 0.012641,-0.28558 0.027344,-0.339844 0.1498588,-0.5536 0.2644189,-0.873919 0.7949218,-1.011719 0.153555,-0.04 0.2520079,-0.04655 0.9726563,-0.06055 0.4486061,-0.01 0.848737,-0.02606 0.90625,-0.03906 0.3108235,-0.07 0.5371535,-0.186219 0.7480465,-0.386719 0.200888,-0.191 0.337398,-0.386362 0.59961,-0.851562 0.408175,-0.718101 1.213541,-0.709729 1.871094,-0.736329 0.186424,0.039 0.248944,0.06454 0.453124,0.181641 0.205496,0.1184 0.262717,0.163716 0.441407,0.353516 0.449674,0.4777 0.665265,0.773175 1.673828,2.296875 0.799367,1.208 1.043015,1.595309 1.365234,2.162109 0.351012,0.6175 0.98417,1.60695 1.21875,1.90625 0.03975,0.051 0.283313,0.359647 0.541016,0.685547 0.257714,0.3262 0.493086,0.630834 0.523437,0.677734 0.462688,0.643797 0.788071,1.379988 0.921875,2.119141 0.01261,-0.09656 0.02869,-0.10806 0.04102,-0.275391 0.02274,-0.3085 0.02304,-0.353647 -0.01758,-0.623047 -0.120856,-0.7733 -0.46135,-1.547303 -0.945313,-2.220703 -0.03035,-0.0469 -0.265723,-0.351534 -0.523437,-0.677734 -0.257703,-0.3259 -0.501266,-0.634547 -0.541016,-0.685547 -0.23458,-0.2993 -0.867738,-1.28875 -1.21875,-1.90625 -0.322219,-0.5668 -0.565867,-0.954109 -1.365234,-2.162109 -1.008563,-1.5237 -1.224154,-1.819175 -1.673828,-2.296875 -0.17869,-0.1898 -0.235911,-0.235116 -0.441407,-0.353516 -0.20418,-0.1171 -0.2667,-0.142641 -0.453124,-0.181641 z m -5.7792974,7.210938 c -0.069953,0.608236 -0.3222903,0.878641 -0.6386718,1.539062 -0.2500805,0.5219 -0.340718,0.770397 -0.375,1.029297 -0.030235,0.228235 0.0067,0.44062 0.09375,0.626953 0.058209,-0.169271 0.1432357,-0.368224 0.28125,-0.65625 0.3342403,-0.6977 0.6033842,-0.948165 0.6542968,-1.634765 0.017754,-0.239459 0.00986,-0.537553 -0.015625,-0.904297 z"
     id="path18" />
  <path
     style="fill:#000000;stroke-width:0.981628"
     d="m 34.031966,35 c -1.683202,0 -1.969988,-1.274985 -2.031805,-2.845524 -0.06744,-1.71329 0.117747,-2.703817 3.047709,-2.845525 C 38.336985,28.140485 37.246204,34.908754 34.031966,35 Z"
     id="path19" />
  <ellipse
     style="fill:url(#linearGradient30);stroke-width:0.637528"
     cx="20.920923"
     cy="11.723028"
     id="circle9"
     rx="1.892916"
     ry="1.9324546" />
  <circle
     style="fill:#323232"
     cx="21"
     cy="11.9998"
     r="1"
     id="circle10" />
  <ellipse
     style="fill:url(#linearGradient28);stroke-width:0.637528"
     cx="-26.693575"
     cy="11.64395"
     id="ellipse19"
     rx="1.892916"
     ry="1.9324546"
     transform="scale(-1,1)" />
  <circle
     style="fill:#323232"
     cx="-26.614498"
     cy="11.920722"
     r="1"
     id="circle19"
     transform="scale(-1,1)" />
  <path
     style="opacity:0.328205;fill:#ffffff;fill-opacity:1;stroke-width:0.681623;filter:url(#filter26)"
     d="m 27.209226,15.882207 c 0,0.275948 -1.507628,1.931631 -3.36738,1.931631 -1.859753,0 -3.367381,-1.655683 -3.367381,-1.931631 0,-0.762001 1.507628,-1.379736 3.367381,-1.379736 1.859752,0 3.36738,0.617735 3.36738,1.379736 z"
     id="path25" />
  <ellipse
     style="opacity:0.328205;mix-blend-mode:normal;fill:#000000;fill-opacity:1;fill-rule:evenodd;stroke:#1e6235;stroke-width:0.138687;stroke-linecap:round;stroke-linejoin:round;stroke-miterlimit:3.6;filter:url(#filter30)"
     id="path30"
     cx="23.960461"
     cy="40.922569"
     rx="3.6375618"
     ry="2.4118617" />
</svg>
