<?xml version="1.0" encoding="UTF-8" standalone="no"?>
<svg
   width="48"
   height="48"
   version="1.1"
   id="svg11"
   sodipodi:docname="windows.svg"
   inkscape:export-filename="windows.svg"
   inkscape:export-xdpi="96"
   inkscape:export-ydpi="96"
   inkscape:version="1.4.3 (0d15f75, 2025-12-25)"
   xmlns:inkscape="http://www.inkscape.org/namespaces/inkscape"
   xmlns:sodipodi="http://sodipodi.sourceforge.net/DTD/sodipodi-0.dtd"
   xmlns:xlink="http://www.w3.org/1999/xlink"
   xmlns="http://www.w3.org/2000/svg"
   xmlns:svg="http://www.w3.org/2000/svg">
  <defs
     id="defs11">
    <linearGradient
       id="linearGradient11"
       inkscape:collect="always">
      <stop
         style="stop-color:#000084;stop-opacity:1;"
         offset="0.18780488"
         id="stop11" />
      <stop
         style="stop-color:#4949ff;stop-opacity:1;"
         offset="0.98292685"
         id="stop12" />
    </linearGradient>
    <linearGradient
       inkscape:collect="always"
       xlink:href="#linearGradient11"
       id="linearGradient12"
       x1="24.279238"
       y1="8.0024357"
       x2="23.720762"
       y2="39.997562"
       gradientUnits="userSpaceOnUse" />
    <filter
       inkscape:collect="always"
       style="color-interpolation-filters:sRGB"
       id="filter12"
       x="-0.066777121"
       y="-0.066777121"
       width="1.1335542"
       height="1.1335542">
      <feGaussianBlur
         inkscape:collect="always"
         stdDeviation="0.8903616"
         id="feGaussianBlur12" />
    </filter>
    <filter
       inkscape:collect="always"
       style="color-interpolation-filters:sRGB"
       id="filter13"
       x="-0.034349113"
       y="-0.45798817"
       width="1.0686982"
       height="1.9159763">
      <feGaussianBlur
         inkscape:collect="always"
         stdDeviation="0.57248521"
         id="feGaussianBlur13" />
    </filter>
    <filter
       inkscape:collect="always"
       style="color-interpolation-filters:sRGB"
       id="filter14"
       x="-0.041562427"
       y="-0.5541657"
       width="1.0831249"
       height="2.1083314">
      <feGaussianBlur
         inkscape:collect="always"
         stdDeviation="0.6927071"
         id="feGaussianBlur14" />
    </filter>
  </defs>
  <sodipodi:namedview
     id="namedview11"
     pagecolor="#505050"
     bordercolor="#eeeeee"
     borderopacity="1"
     inkscape:showpageshadow="0"
     inkscape:pageopacity="0"
     inkscape:pagecheckerboard="0"
     inkscape:deskcolor="#505050"
     inkscape:zoom="12.645833"
     inkscape:cx="24"
     inkscape:cy="24"
     inkscape:window-width="1440"
     inkscape:window-height="829"
     inkscape:window-x="-8"
     inkscape:window-y="-8"
     inkscape:window-maximized="1"
     inkscape:current-layer="svg11" />
  <rect
     x="4"
     y="4"
     width="40"
     height="40"
     rx="2"
     ry="2"
     style="fill:#cfcfcf;fill-opacity:1;opacity:1"
     id="rect1" />
  <path
     d="m6 4c-1.108 0-2 0.892-2 2v1c0-1.108 0.892-2 2-2h36c1.108 0 2 0.892 2 2v-1c0-1.108-0.892-2-2-2z"
     style="fill:#ffffff;opacity:0.1;filter:url(#filter14)"
     id="path1" />
  <path
     d="m6 45c-1.108 0-2-0.892-2-2v-1c0 1.108 0.892 2 2 2h36c1.108 0 2-0.892 2-2v1c0 1.108-0.892 2-2 2z"
     style="opacity:0.2;fill:#e3dedb;filter:url(#filter13)"
     id="path2" />
  <g
     transform="translate(0,1)"
     style="opacity:0.23076923;fill:#000000;filter:url(#filter12)"
     id="g7">
    <g
       id="g4"
       style="fill:#000000">
      <path
         d="m9 8h12c0.554 0 1 0.446 1 1v12c0 0.554-0.446 1-1 1h-12c-0.554 0-1-0.446-1-1v-12c0-0.554 0.446-1 1-1z"
         id="path3"
         style="fill:#000000" />
      <path
         d="m27 8h12c0.554 0 1 0.446 1 1v12c0 0.554-0.446 1-1 1h-12c-0.554 0-1-0.446-1-1v-12c0-0.554 0.446-1 1-1z"
         id="path4"
         style="fill:#000000" />
    </g>
    <g
       transform="translate(0,18)"
       id="g6"
       style="fill:#000000">
      <path
         d="m9 8h12c0.554 0 1 0.446 1 1v12c0 0.554-0.446 1-1 1h-12c-0.554 0-1-0.446-1-1v-12c0-0.554 0.446-1 1-1z"
         id="path5"
         style="fill:#000000" />
      <path
         d="m27 8h12c0.554 0 1 0.446 1 1v12c0 0.554-0.446 1-1 1h-12c-0.554 0-1-0.446-1-1v-12c0-0.554 0.446-1 1-1z"
         id="path6"
         style="fill:#000000" />
    </g>
  </g>
  <g
     style="fill:url(#linearGradient12)"
     id="g11">
    <g
       id="g8"
       style="fill:url(#linearGradient12)">
      <path
         d="m9 8h12c0.554 0 1 0.446 1 1v12c0 0.554-0.446 1-1 1h-12c-0.554 0-1-0.446-1-1v-12c0-0.554 0.446-1 1-1z"
         style="fill:url(#linearGradient12)"
         id="path7" />
      <path
         d="m27 8h12c0.554 0 1 0.446 1 1v12c0 0.554-0.446 1-1 1h-12c-0.554 0-1-0.446-1-1v-12c0-0.554 0.446-1 1-1z"
         style="fill:url(#linearGradient12)"
         id="path8" />
    </g>
    <g
       transform="translate(0,18)"
       id="g10"
       style="fill:url(#linearGradient12)">
      <path
         d="m9 8h12c0.554 0 1 0.446 1 1v12c0 0.554-0.446 1-1 1h-12c-0.554 0-1-0.446-1-1v-12c0-0.554 0.446-1 1-1z"
         style="fill:url(#linearGradient12)"
         id="path9" />
      <path
         d="m27 8h12c0.554 0 1 0.446 1 1v12c0 0.554-0.446 1-1 1h-12c-0.554 0-1-0.446-1-1v-12c0-0.554 0.446-1 1-1z"
         style="fill:url(#linearGradient12)"
         id="path10" />
    </g>
  </g>
</svg>
